{
  "title" : "",
  "description" : "",
  "author" : "",
  "targetLoudness" : -18.0,
  "shouldApplyLoudnessNormalization" : true,
  "videoFormatFrameRate" : 60,
  "audioFormatSampleRate" : 44100,
  "width" : 1080.0,
  "height" : 1920.0,
  "version" : "5.0",
  "editRate" : 60,
  "authoringClientName" :  {
    "name" : "Camtasia",
    "platform" : "Windows",
    "version" : "21.0"
  },
  "sourceBin" : [
    {
      "id" : 1,
      "src" : "Wallpaper 2024 - Sam Calder√≥n Aguirre-sky.png",
      "rect" : [0, 0, 3000, 2000],
      "lastMod" : "20231213T144132",
      "loudnessNormalization" : true,
      "sourceTracks" : [
        {
          "range" : [0, 1],
          "type" : 1,
          "editRate" : 10000000,
          "trackRect" : [0, 0, 3000, 2000],
          "sampleRate" : 0,
          "bitDepth" : 32,
          "numChannels" : 0,
          "integratedLUFS" : 100.0,
          "peakLevel" : -1.0,
          "metaData" : ""
        }
      ],
      "metadata" : {
        "timeAdded" : "20231216T185753.757379"
      }
    },
    {
      "id" : 2,
      "src" : "Tip-Copilot-Generar-Imagenes.mp4",
      "rect" : [0, 0, 1026, 768],
      "lastMod" : "20231216T185506",
      "loudnessNormalization" : true,
      "sourceTracks" : [
        {
          "range" : [0, 7831500],
          "type" : 0,
          "editRate" : 90000,
          "trackRect" : [0, 0, 1026, 768],
          "sampleRate" : "300003/5000",
          "bitDepth" : 24,
          "numChannels" : 0,
          "integratedLUFS" : 100.0,
          "peakLevel" : -1.0,
          "metaData" : ""
        },
        {
          "range" : [0, 7836735],
          "type" : 2,
          "editRate" : 90000,
          "trackRect" : [0, 0, 0, 0],
          "sampleRate" : 44100,
          "bitDepth" : 16,
          "numChannels" : 2,
          "integratedLUFS" : 0.0,
          "peakLevel" : 0.0,
          "metaData" : ""
        }
      ],
      "metadata" : {
        "timeAdded" : "20231216T185901.237864"
      }
    },
    {
      "id" : 3,
      "src" : "copilot-1.mp4",
      "rect" : [0, 0, 1920, 1080],
      "lastMod" : "20231217T151452",
      "loudnessNormalization" : true,
      "sourceTracks" : [
        {
          "range" : [0, 73930],
          "type" : 0,
          "editRate" : 1000,
          "trackRect" : [0, 0, 1920, 1080],
          "sampleRate" : "298801/10000",
          "bitDepth" : 24,
          "numChannels" : 0,
          "integratedLUFS" : 100.0,
          "peakLevel" : -1.0,
          "metaData" : ""
        },
        {
          "range" : [0, 73941],
          "type" : 2,
          "editRate" : 1000,
          "trackRect" : [0, 0, 0, 0],
          "sampleRate" : 48000,
          "bitDepth" : 16,
          "numChannels" : 2,
          "integratedLUFS" : -23.7278509605986,
          "peakLevel" : 0.670570552349091,
          "metaData" : ""
        }
      ],
      "metadata" : {
        "timeAdded" : "20231217T153723.600273"
      }
    },
    {
      "id" : 4,
      "src" : "Introducing Microsoft 365 Copilot   Your Copilot for Work.mp4",
      "rect" : [0, 0, 1920, 1080],
      "lastMod" : "20231217T153928",
      "loudnessNormalization" : true,
      "sourceTracks" : [
        {
          "range" : [0, 96041],
          "type" : 0,
          "editRate" : 1000,
          "trackRect" : [0, 0, 1920, 1080],
          "sampleRate" : 24,
          "bitDepth" : 24,
          "numChannels" : 0,
          "integratedLUFS" : 100.0,
          "peakLevel" : -1.0,
          "metaData" : ""
        },
        {
          "range" : [0, 96061],
          "type" : 2,
          "editRate" : 1000,
          "trackRect" : [0, 0, 0, 0],
          "sampleRate" : 44100,
          "bitDepth" : 16,
          "numChannels" : 2,
          "integratedLUFS" : -16.0759647313175,
          "peakLevel" : 0.499470710754395,
          "metaData" : ""
        }
      ],
      "metadata" : {
        "timeAdded" : "20231217T153950.907695"
      }
    },
    {
      "id" : 5,
      "src" : "üçÄ Chill Instrumental [Non Copyrighted Music]  Embrace  by @Sappheiros  üá∫üá∏.mp3",
      "rect" : [0, 0, 0, 0],
      "lastMod" : "20231217T154721",
      "loudnessNormalization" : true,
      "sourceTracks" : [
        {
          "range" : [0, 2770285500],
          "type" : 2,
          "editRate" : 10000000,
          "trackRect" : [0, 0, 0, 0],
          "sampleRate" : 44100,
          "bitDepth" : 0,
          "numChannels" : 2,
          "integratedLUFS" : -10.9584991144683,
          "peakLevel" : 1.0,
          "metaData" : ""
        }
      ],
      "metadata" : {
        "timeAdded" : "20231217T154740.627480"
      }
    }
  ],
  "timeline" : {
    "id" : 6,
    "sceneTrack" : {
      "scenes" : [
        {
          "csml" : {
            "tracks" : [
              {
                "trackIndex" : 0,
                "medias" : [
                  {
                    "id" : 7,
                    "_type" : "IMFile",
                    "src" : 1,
                    "trackNumber" : 0,
                    "trimStartSum" : 0,
                    "attributes" : {
                      "ident" : "Wallpaper 2024 - Sam Calder√≥n Aguirre-sky"
                    },
                    "parameters" : {
                      "translation0" : -2069.34090909092,
                      "translation1" : -779.560606060607,
                      "scale0" : 1.73956060606061,
                      "scale1" : 1.73956060606061,
                      "sourceCrop0" : 0.0,
                      "sourceCrop1" : 0.0,
                      "sourceCrop2" : 0.0,
                      "sourceCrop3" : 0.0,
                      "geometryCrop0" : 0.0,
                      "geometryCrop1" : 0.0,
                      "geometryCrop2" : 0.0,
                      "geometryCrop3" : 0.0
                    },
                    "effects" : [
                        {
                          "effectName" : "Glow",
                          "bypassed" : false,
                          "category" : "categoryVisualEffects",
                          "parameters" : {
                            "intensity" : 0.6,
                            "radius" : 35.0
                          },
                          "metadata" : {
                            "presetName" : "Iluminado"
                          }
                        },
                        {
                          "effectName" : "MotionBlur",
                          "bypassed" : false,
                          "category" : "categoryVisualEffects",
                          "parameters" : {
                            "intensity" : 1.0
                          },
                          "metadata" : {
                            "presetName" : "Desenfoque animado"
                          }
                        }
                    ],
                    "start" : 0,
                    "duration" : 4435,
                    "mediaStart" : 0,
                    "mediaDuration" : 1,
                    "scalar" : 1,
                    "metadata" : {
                      "clipSpeedAttribute" : false,
                      "default-height" : 720.0,
                      "default-scale0" : 0.36,
                      "default-scale1" : 0.36,
                      "default-translation0" : 0.0,
                      "default-translation1" : 0.0,
                      "default-width" : 1080.0
                    },
                    "animationTracks" : {

                    }
                  }
                ]
              },
              {
                "trackIndex" : 1,
                "medias" : [
                  {
                    "id" : 8,
                    "_type" : "UnifiedMedia",
                    "video" : 
                        {
                          "id" : 9,
                          "_type" : "VMFile",
                          "src" : 4,
                          "trackNumber" : 0,
                          "attributes" : {
                            "ident" : "Introducing Microsoft 365 Copilot   Your Copilot for Work"
                          },
                          "parameters" : {
                            "translation0" : {
                              "type" : "double",
                              "defaultValue" : 5.07149877648772e-13,
                              "interp" : "eioe"
                            },
                            "translation1" : {
                              "type" : "double",
                              "defaultValue" : 1.77635683940025e-14,
                              "interp" : "eioe"
                            },
                            "scale0" : {
                              "type" : "double",
                              "defaultValue" : 1.03965053763441,
                              "interp" : "eioe"
                            },
                            "scale1" : {
                              "type" : "double",
                              "defaultValue" : 1.03965053763441,
                              "interp" : "eioe"
                            },
                            "sourceCrop0" : {
                              "type" : "double",
                              "defaultValue" : 0.0,
                              "interp" : "eioe"
                            },
                            "sourceCrop1" : {
                              "type" : "double",
                              "defaultValue" : 0.0,
                              "interp" : "eioe"
                            },
                            "sourceCrop2" : {
                              "type" : "double",
                              "defaultValue" : 0.0,
                              "interp" : "eioe"
                            },
                            "sourceCrop3" : {
                              "type" : "double",
                              "defaultValue" : 0.0,
                              "interp" : "eioe"
                            },
                            "geometryCrop0" : {
                              "type" : "double",
                              "defaultValue" : 0.0,
                              "interp" : "eioe"
                            },
                            "geometryCrop1" : {
                              "type" : "double",
                              "defaultValue" : 0.0,
                              "interp" : "eioe"
                            },
                            "geometryCrop2" : {
                              "type" : "double",
                              "defaultValue" : 0.0,
                              "interp" : "eioe"
                            },
                            "geometryCrop3" : {
                              "type" : "double",
                              "defaultValue" : 0.0,
                              "interp" : "eioe"
                            }
                          },
                          "effects" : [

                          ],
                          "start" : 0,
                          "duration" : 505,
                          "mediaStart" : 0,
                          "mediaDuration" : 505,
                          "scalar" : 1,
                          "animationTracks" : {

                          }
                        },
                    "audio" : 
                        {
                          "id" : 10,
                          "_type" : "AMFile",
                          "src" : 4,
                          "trackNumber" : 1,
                          "attributes" : {
                            "ident" : "",
                            "gain" : 1.0,
                            "mixToMono" : false,
                            "loudnessNormalization" : true
                          },
                            "channelNumber" : "0,1",
                          "parameters" : {
                            "volume" : {
                              "type" : "double",
                              "keyframes" : [
                                {
                                  "endTime" : -1,
                                  "time" : -1,
                                  "value" : 1.0,
                                  "duration" : 0
                                },
                                {
                                  "endTime" : 0,
                                  "time" : 0,
                                  "value" : 0.0,
                                  "duration" : 0
                                },
                                {
                                  "endTime" : 5761,
                                  "time" : 5761,
                                  "value" : 0.0,
                                  "duration" : 0
                                },
                                {
                                  "endTime" : 5762,
                                  "time" : 5762,
                                  "value" : 1.0,
                                  "duration" : 0
                                }
                              ]
                            }
                          },
                          "effects" : [

                          ],
                          "start" : 0,
                          "duration" : 505,
                          "mediaStart" : 0,
                          "mediaDuration" : 505,
                          "scalar" : 1,
                          "animationTracks" : {

                          }
                        }
,
                    "start" : 0,
                    "duration" : 505,
                    "mediaStart" : 0,
                    "mediaDuration" : 5761,
                    "scalar" : 1,
                    "metadata" : {
                      "clipSpeedAttribute" : false,
                      "default-height" : 607.5,
                      "default-scale0" : 0.5625,
                      "default-scale1" : 0.5625,
                      "default-translation0" : 0.0,
                      "default-translation1" : 0.0,
                      "default-width" : 1080.0
                    }
                  },
                  {
                    "id" : 11,
                    "_type" : "UnifiedMedia",
                    "video" : 
                        {
                          "id" : 12,
                          "_type" : "VMFile",
                          "src" : 2,
                          "trackNumber" : 0,
                          "attributes" : {
                            "ident" : "Tip-Copilot-Generar-Imagenes"
                          },
                          "parameters" : {
                            "translation0" : 1.35003119794419e-13,
                            "translation1" : -1.04805053524615e-13,
                            "scale0" : 1.05263157894737,
                            "scale1" : 1.05263157894737,
                            "sourceCrop0" : 0.0,
                            "sourceCrop1" : 0.0,
                            "sourceCrop2" : 0.0,
                            "sourceCrop3" : 0.0,
                            "geometryCrop0" : 0.0,
                            "geometryCrop1" : 0.0,
                            "geometryCrop2" : 0.0,
                            "geometryCrop3" : 0.0
                          },
                          "effects" : [

                          ],
                          "start" : 505,
                          "duration" : 148,
                          "mediaStart" : 0,
                          "mediaDuration" : 148,
                          "scalar" : 1,
                          "animationTracks" : {

                          }
                        },
                    "audio" : 
                        {
                          "id" : 13,
                          "_type" : "AMFile",
                          "src" : 2,
                          "trackNumber" : 1,
                          "attributes" : {
                            "ident" : "",
                            "gain" : 1.0,
                            "mixToMono" : false,
                            "loudnessNormalization" : true
                          },
                            "channelNumber" : "0,1",
                          "effects" : [

                          ],
                          "start" : 505,
                          "duration" : 148,
                          "mediaStart" : 0,
                          "mediaDuration" : 148,
                          "scalar" : 1,
                          "animationTracks" : {

                          }
                        }
,
                    "start" : 505,
                    "duration" : 148,
                    "mediaStart" : 0,
                    "mediaDuration" : 5221,
                    "scalar" : 1,
                    "metadata" : {
                      "clipSpeedAttribute" : false,
                      "default-height" : 768.0,
                      "default-scale0" : 1.0,
                      "default-scale1" : 1.0,
                      "default-translation0" : 0.0,
                      "default-translation1" : 0.0,
                      "default-width" : 1026.0
                    }
                  },
                  {
                    "id" : 14,
                    "_type" : "UnifiedMedia",
                    "video" : 
                        {
                          "id" : 15,
                          "_type" : "VMFile",
                          "src" : 2,
                          "trackNumber" : 0,
                          "attributes" : {
                            "ident" : "Tip-Copilot-Generar-Imagenes"
                          },
                          "parameters" : {
                            "translation0" : -0.0504032258066331,
                            "translation1" : -0.0377287304285403,
                            "scale0" : 2.22860859586241,
                            "scale1" : 2.22860859586241,
                            "sourceCrop0" : 0.0,
                            "sourceCrop1" : 0.0,
                            "sourceCrop2" : 0.0,
                            "sourceCrop3" : 0.0,
                            "geometryCrop0" : 0.0,
                            "geometryCrop1" : 0.0,
                            "geometryCrop2" : 0.0,
                            "geometryCrop3" : 0.0
                          },
                          "effects" : [

                          ],
                          "start" : 653,
                          "duration" : 239,
                          "mediaStart" : 148,
                          "mediaDuration" : 239,
                          "scalar" : 1,
                          "animationTracks" : {

                          }
                        },
                    "audio" : 
                        {
                          "id" : 16,
                          "_type" : "AMFile",
                          "src" : 2,
                          "trackNumber" : 1,
                          "attributes" : {
                            "ident" : "",
                            "gain" : 1.0,
                            "mixToMono" : false,
                            "loudnessNormalization" : true
                          },
                            "channelNumber" : "0,1",
                          "effects" : [

                          ],
                          "start" : 653,
                          "duration" : 239,
                          "mediaStart" : 148,
                          "mediaDuration" : 239,
                          "scalar" : 1,
                          "animationTracks" : {

                          }
                        }
,
                    "start" : 653,
                    "duration" : 239,
                    "mediaStart" : 0,
                    "mediaDuration" : 5221,
                    "scalar" : 1,
                    "metadata" : {
                      "clipSpeedAttribute" : false,
                      "default-height" : 768.0,
                      "default-scale0" : 1.0,
                      "default-scale1" : 1.0,
                      "default-translation0" : 0.0,
                      "default-translation1" : 0.0,
                      "default-width" : 1026.0
                    }
                  },
                  {
                    "id" : 17,
                    "_type" : "UnifiedMedia",
                    "video" : 
                        {
                          "id" : 18,
                          "_type" : "VMFile",
                          "src" : 2,
                          "trackNumber" : 0,
                          "attributes" : {
                            "ident" : "Tip-Copilot-Generar-Imagenes"
                          },
                          "parameters" : {
                            "translation0" : -648.014112903225,
                            "translation1" : 2.8421709430404e-14,
                            "scale0" : 2.31581698421681,
                            "scale1" : 2.31581698421681,
                            "sourceCrop0" : 0.0,
                            "sourceCrop1" : 0.0,
                            "sourceCrop2" : 0.0,
                            "sourceCrop3" : 0.0,
                            "geometryCrop0" : 0.0,
                            "geometryCrop1" : 0.0,
                            "geometryCrop2" : 0.0,
                            "geometryCrop3" : 0.0
                          },
                          "effects" : [

                          ],
                          "start" : 892,
                          "duration" : 627,
                          "mediaStart" : 387,
                          "mediaDuration" : 627,
                          "scalar" : 1,
                          "animationTracks" : {

                          }
                        },
                    "audio" : 
                        {
                          "id" : 19,
                          "_type" : "AMFile",
                          "src" : 2,
                          "trackNumber" : 1,
                          "attributes" : {
                            "ident" : "",
                            "gain" : 1.0,
                            "mixToMono" : false,
                            "loudnessNormalization" : true
                          },
                            "channelNumber" : "0,1",
                          "effects" : [

                          ],
                          "start" : 892,
                          "duration" : 627,
                          "mediaStart" : 387,
                          "mediaDuration" : 627,
                          "scalar" : 1,
                          "animationTracks" : {

                          }
                        }
,
                    "start" : 892,
                    "duration" : 627,
                    "mediaStart" : 0,
                    "mediaDuration" : 5221,
                    "scalar" : 1,
                    "metadata" : {
                      "clipSpeedAttribute" : false,
                      "default-height" : 768.0,
                      "default-scale0" : 1.0,
                      "default-scale1" : 1.0,
                      "default-translation0" : 0.0,
                      "default-translation1" : 0.0,
                      "default-width" : 1026.0
                    }
                  },
                  {
                    "id" : 20,
                    "_type" : "UnifiedMedia",
                    "video" : 
                        {
                          "id" : 21,
                          "_type" : "VMFile",
                          "src" : 2,
                          "trackNumber" : 0,
                          "attributes" : {
                            "ident" : "Tip-Copilot-Generar-Imagenes"
                          },
                          "parameters" : {
                            "translation0" : {
                              "type" : "double",
                              "defaultValue" : -648.014112903225,
                              "interp" : "eioe"
                            },
                            "translation1" : {
                              "type" : "double",
                              "defaultValue" : 2.8421709430404e-14,
                              "interp" : "eioe"
                            },
                            "scale0" : {
                              "type" : "double",
                              "defaultValue" : 2.31581698421681,
                              "interp" : "eioe"
                            },
                            "scale1" : {
                              "type" : "double",
                              "defaultValue" : 2.31581698421681,
                              "interp" : "eioe"
                            },
                            "sourceCrop0" : {
                              "type" : "double",
                              "defaultValue" : 0.0,
                              "interp" : "eioe"
                            },
                            "sourceCrop1" : {
                              "type" : "double",
                              "defaultValue" : 0.0,
                              "interp" : "eioe"
                            },
                            "sourceCrop2" : {
                              "type" : "double",
                              "defaultValue" : 0.0,
                              "interp" : "eioe"
                            },
                            "sourceCrop3" : {
                              "type" : "double",
                              "defaultValue" : 0.0,
                              "interp" : "eioe"
                            },
                            "geometryCrop0" : {
                              "type" : "double",
                              "defaultValue" : 0.0,
                              "interp" : "eioe"
                            },
                            "geometryCrop1" : {
                              "type" : "double",
                              "defaultValue" : 0.0,
                              "interp" : "eioe"
                            },
                            "geometryCrop2" : {
                              "type" : "double",
                              "defaultValue" : 0.0,
                              "interp" : "eioe"
                            },
                            "geometryCrop3" : {
                              "type" : "double",
                              "defaultValue" : 0.0,
                              "interp" : "eioe"
                            }
                          },
                          "effects" : [

                          ],
                          "start" : 1519,
                          "duration" : 1283,
                          "mediaStart" : 1014,
                          "mediaDuration" : 2565,
                          "scalar" : "1283/2565",
                          "animationTracks" : {

                          }
                        },
                    "audio" : 
                        {
                          "id" : 22,
                          "_type" : "AMFile",
                          "src" : 2,
                          "trackNumber" : 1,
                          "attributes" : {
                            "ident" : "",
                            "gain" : 1.0,
                            "mixToMono" : false,
                            "loudnessNormalization" : true
                          },
                            "channelNumber" : "0,1",
                          "effects" : [

                          ],
                          "start" : 1519,
                          "duration" : 1283,
                          "mediaStart" : 1014,
                          "mediaDuration" : 2565,
                          "scalar" : "1283/2565",
                          "animationTracks" : {

                          }
                        }
,
                    "start" : 1519,
                    "duration" : 1283,
                    "mediaStart" : 0,
                    "mediaDuration" : 5221,
                    "scalar" : "1283/2565",
                    "metadata" : {
                      "clipSpeedAttribute" : true,
                      "default-height" : 768.0,
                      "default-scale0" : 1.0,
                      "default-scale1" : 1.0,
                      "default-translation0" : 0.0,
                      "default-translation1" : 0.0,
                      "default-width" : 1026.0
                    }
                  },
                  {
                    "id" : 23,
                    "_type" : "UnifiedMedia",
                    "video" : 
                        {
                          "id" : 24,
                          "_type" : "VMFile",
                          "src" : 2,
                          "trackNumber" : 0,
                          "attributes" : {
                            "ident" : "Tip-Copilot-Generar-Imagenes"
                          },
                          "parameters" : {
                            "translation0" : 1.35003119794419e-13,
                            "translation1" : -1.04805053524615e-13,
                            "scale0" : 1.05263157894737,
                            "scale1" : 1.05263157894737,
                            "sourceCrop0" : 0.0,
                            "sourceCrop1" : 0.0,
                            "sourceCrop2" : 0.0,
                            "sourceCrop3" : 0.0,
                            "geometryCrop0" : 0.0,
                            "geometryCrop1" : 0.0,
                            "geometryCrop2" : 0.0,
                            "geometryCrop3" : 0.0
                          },
                          "effects" : [

                          ],
                          "start" : 2802,
                          "duration" : 90,
                          "mediaStart" : 3579,
                          "mediaDuration" : 90,
                          "scalar" : 1,
                          "animationTracks" : {

                          }
                        },
                    "audio" : 
                        {
                          "id" : 25,
                          "_type" : "AMFile",
                          "src" : 2,
                          "trackNumber" : 1,
                          "attributes" : {
                            "ident" : "",
                            "gain" : 1.0,
                            "mixToMono" : false,
                            "loudnessNormalization" : true
                          },
                            "channelNumber" : "0,1",
                          "effects" : [

                          ],
                          "start" : 2802,
                          "duration" : 90,
                          "mediaStart" : 3579,
                          "mediaDuration" : 90,
                          "scalar" : 1,
                          "animationTracks" : {

                          }
                        }
,
                    "start" : 2802,
                    "duration" : 90,
                    "mediaStart" : 0,
                    "mediaDuration" : 5221,
                    "scalar" : 1,
                    "metadata" : {
                      "clipSpeedAttribute" : false,
                      "default-height" : 768.0,
                      "default-scale0" : 1.0,
                      "default-scale1" : 1.0,
                      "default-translation0" : 0.0,
                      "default-translation1" : 0.0,
                      "default-width" : 1026.0
                    }
                  },
                  {
                    "id" : 26,
                    "_type" : "UnifiedMedia",
                    "video" : 
                        {
                          "id" : 27,
                          "_type" : "VMFile",
                          "src" : 2,
                          "trackNumber" : 0,
                          "attributes" : {
                            "ident" : "Tip-Copilot-Generar-Imagenes"
                          },
                          "parameters" : {
                            "translation0" : 373.097278225806,
                            "translation1" : 1.56319401867222e-13,
                            "scale0" : 1.77991672168773,
                            "scale1" : 1.77991672168773,
                            "sourceCrop0" : 0.0,
                            "sourceCrop1" : 0.0,
                            "sourceCrop2" : 0.0,
                            "sourceCrop3" : 0.0,
                            "geometryCrop0" : 0.0,
                            "geometryCrop1" : 0.0,
                            "geometryCrop2" : 0.0,
                            "geometryCrop3" : 0.0
                          },
                          "effects" : [

                          ],
                          "start" : 2892,
                          "duration" : 732,
                          "mediaStart" : 3669,
                          "mediaDuration" : 732,
                          "scalar" : 1,
                          "animationTracks" : {

                          }
                        },
                    "audio" : 
                        {
                          "id" : 28,
                          "_type" : "AMFile",
                          "src" : 2,
                          "trackNumber" : 1,
                          "attributes" : {
                            "ident" : "",
                            "gain" : 1.0,
                            "mixToMono" : false,
                            "loudnessNormalization" : true
                          },
                            "channelNumber" : "0,1",
                          "effects" : [

                          ],
                          "start" : 2892,
                          "duration" : 732,
                          "mediaStart" : 3669,
                          "mediaDuration" : 732,
                          "scalar" : 1,
                          "animationTracks" : {

                          }
                        }
,
                    "start" : 2892,
                    "duration" : 732,
                    "mediaStart" : 0,
                    "mediaDuration" : 5221,
                    "scalar" : 1,
                    "metadata" : {
                      "clipSpeedAttribute" : false,
                      "default-height" : 768.0,
                      "default-scale0" : 1.0,
                      "default-scale1" : 1.0,
                      "default-translation0" : 0.0,
                      "default-translation1" : 0.0,
                      "default-width" : 1026.0
                    }
                  },
                  {
                    "id" : 29,
                    "_type" : "UnifiedMedia",
                    "video" : 
                        {
                          "id" : 30,
                          "_type" : "VMFile",
                          "src" : 2,
                          "trackNumber" : 0,
                          "attributes" : {
                            "ident" : "Tip-Copilot-Generar-Imagenes"
                          },
                          "parameters" : {
                            "translation0" : 1.35003119794419e-13,
                            "translation1" : -1.04805053524615e-13,
                            "scale0" : 1.05263157894737,
                            "scale1" : 1.05263157894737,
                            "sourceCrop0" : 0.0,
                            "sourceCrop1" : 0.0,
                            "sourceCrop2" : 0.0,
                            "sourceCrop3" : 0.0,
                            "geometryCrop0" : 0.0,
                            "geometryCrop1" : 0.0,
                            "geometryCrop2" : 0.0,
                            "geometryCrop3" : 0.0
                          },
                          "effects" : [

                          ],
                          "start" : 3624,
                          "duration" : 811,
                          "mediaStart" : 4401,
                          "mediaDuration" : 811,
                          "scalar" : 1,
                          "animationTracks" : {

                          }
                        },
                    "audio" : 
                        {
                          "id" : 31,
                          "_type" : "AMFile",
                          "src" : 2,
                          "trackNumber" : 1,
                          "attributes" : {
                            "ident" : "",
                            "gain" : 1.0,
                            "mixToMono" : false,
                            "loudnessNormalization" : true
                          },
                            "channelNumber" : "0,1",
                          "effects" : [

                          ],
                          "start" : 3624,
                          "duration" : 811,
                          "mediaStart" : 4401,
                          "mediaDuration" : 811,
                          "scalar" : 1,
                          "animationTracks" : {

                          }
                        }
,
                    "start" : 3624,
                    "duration" : 811,
                    "mediaStart" : 0,
                    "mediaDuration" : 5221,
                    "scalar" : 1,
                    "metadata" : {
                      "clipSpeedAttribute" : false,
                      "default-height" : 768.0,
                      "default-scale0" : 1.0,
                      "default-scale1" : 1.0,
                      "default-translation0" : 0.0,
                      "default-translation1" : 0.0,
                      "default-width" : 1026.0
                    }
                  }
                ],
                "transitions" : [
                  {
                    "name" : "Bars",
                    "duration" : 30,
                    "trivial" : false,
                    "reverse" : false,
                    "bypass" : false,
                    "useAudioPreRoll" : true,
                    "useVisualPreRoll" : true,
                    "leftMedia" : 8,
                    "rightMedia" : 11
                  },
                  {
                    "name" : "ZoomIn",
                    "duration" : 30,
                    "trivial" : false,
                    "reverse" : false,
                    "bypass" : false,
                    "useAudioPreRoll" : true,
                    "useVisualPreRoll" : true,
                    "leftMedia" : 11,
                    "rightMedia" : 14
                  },
                  {
                    "name" : "SmoothSlide",
                    "duration" : 30,
                    "trivial" : false,
                    "reverse" : false,
                    "bypass" : false,
                    "useAudioPreRoll" : true,
                    "useVisualPreRoll" : true,
                    "leftMedia" : 14,
                    "rightMedia" : 17
                  },
                  {
                    "name" : "SmoothSlide",
                    "duration" : 30,
                    "trivial" : false,
                    "reverse" : false,
                    "bypass" : false,
                    "useAudioPreRoll" : true,
                    "useVisualPreRoll" : true,
                    "leftMedia" : 20,
                    "rightMedia" : 23
                  },
                  {
                    "name" : "SmoothSlide",
                    "duration" : 30,
                    "trivial" : false,
                    "reverse" : false,
                    "bypass" : false,
                    "useAudioPreRoll" : true,
                    "useVisualPreRoll" : true,
                    "leftMedia" : 23,
                    "rightMedia" : 26
                  },
                  {
                    "name" : "SmoothSlide",
                    "duration" : 30,
                    "trivial" : false,
                    "reverse" : false,
                    "bypass" : false,
                    "useAudioPreRoll" : true,
                    "useVisualPreRoll" : true,
                    "leftMedia" : 26,
                    "rightMedia" : 29
                  }
                ]
              },
              {
                "trackIndex" : 2,
                "medias" : [
                  {
                    "id" : 32,
                    "_type" : "UnifiedMedia",
                    "video" : 
                        {
                          "id" : 33,
                          "_type" : "VMFile",
                          "src" : 3,
                          "trackNumber" : 0,
                          "attributes" : {
                            "ident" : "copilot-1"
                          },
                          "parameters" : {
                            "translation0" : {
                              "type" : "double",
                              "defaultValue" : 3.33955085807247e-13,
                              "interp" : "eioe"
                            },
                            "translation1" : {
                              "type" : "double",
                              "defaultValue" : 561.41129032258,
                              "interp" : "eioe"
                            },
                            "scale0" : {
                              "type" : "double",
                              "defaultValue" : 0.326538231780167,
                              "interp" : "eioe"
                            },
                            "scale1" : {
                              "type" : "double",
                              "defaultValue" : 0.326538231780167,
                              "interp" : "eioe"
                            },
                            "sourceCrop0" : {
                              "type" : "double",
                              "defaultValue" : 0.0,
                              "interp" : "eioe"
                            },
                            "sourceCrop1" : {
                              "type" : "double",
                              "defaultValue" : 0.0,
                              "interp" : "eioe"
                            },
                            "sourceCrop2" : {
                              "type" : "double",
                              "defaultValue" : 0.0,
                              "interp" : "eioe"
                            },
                            "sourceCrop3" : {
                              "type" : "double",
                              "defaultValue" : 0.0,
                              "interp" : "eioe"
                            },
                            "geometryCrop0" : {
                              "type" : "double",
                              "defaultValue" : 0.0,
                              "interp" : "eioe"
                            },
                            "geometryCrop1" : {
                              "type" : "double",
                              "defaultValue" : 0.0,
                              "interp" : "eioe"
                            },
                            "geometryCrop2" : {
                              "type" : "double",
                              "defaultValue" : 0.0,
                              "interp" : "eioe"
                            },
                            "geometryCrop3" : {
                              "type" : "double",
                              "defaultValue" : 0.0,
                              "interp" : "eioe"
                            }
                          },
                          "effects" : [
                              {
                                "effectName" : "Border",
                                "bypassed" : false,
                                "category" : "categoryVisualEffects",
                                "parameters" : {
                                  "color-alpha" : {
                                    "type" : "double",
                                    "defaultValue" : 1.0,
                                    "interp" : "linr",
                                    "uiHints" : {
                                      "userInterfaceType" : 0,
                                      "unitType" : 0
                                    }
                                  },
                                  "color-blue" : {
                                    "type" : "double",
                                    "defaultValue" : 1.0,
                                    "interp" : "linr",
                                    "uiHints" : {
                                      "userInterfaceType" : 0,
                                      "unitType" : 0
                                    }
                                  },
                                  "color-green" : {
                                    "type" : "double",
                                    "defaultValue" : 1.0,
                                    "interp" : "linr",
                                    "uiHints" : {
                                      "userInterfaceType" : 0,
                                      "unitType" : 0
                                    }
                                  },
                                  "color-red" : {
                                    "type" : "double",
                                    "defaultValue" : 1.0,
                                    "interp" : "linr",
                                    "uiHints" : {
                                      "userInterfaceType" : 0,
                                      "unitType" : 0
                                    }
                                  },
                                  "enabled" : 1,
                                  "width" : {
                                    "type" : "double",
                                    "defaultValue" : 1.0,
                                    "interp" : "linr",
                                    "uiHints" : {
                                      "userInterfaceType" : 0,
                                      "unitType" : 0
                                    }
                                  }
                                },
                                "metadata" : {
                                  "effectIndex" : "0",
                                  "presetName" : "Borde"
                                }
                              },
                              {
                                "effectName" : "DropShadow",
                                "bypassed" : false,
                                "category" : "categoryVisualEffects",
                                "parameters" : {
                                  "angle" : {
                                    "type" : "double",
                                    "defaultValue" : 5.49779,
                                    "interp" : "linr",
                                    "uiHints" : {
                                      "userInterfaceType" : 0,
                                      "unitType" : 0
                                    }
                                  },
                                  "blur" : {
                                    "type" : "double",
                                    "defaultValue" : 10.0,
                                    "interp" : "linr",
                                    "uiHints" : {
                                      "userInterfaceType" : 0,
                                      "unitType" : 0
                                    }
                                  },
                                  "color-alpha" : {
                                    "type" : "double",
                                    "defaultValue" : 1.0,
                                    "interp" : "linr",
                                    "uiHints" : {
                                      "userInterfaceType" : 0,
                                      "unitType" : 0
                                    }
                                  },
                                  "color-blue" : {
                                    "type" : "double",
                                    "defaultValue" : 0.1216,
                                    "interp" : "linr",
                                    "uiHints" : {
                                      "userInterfaceType" : 0,
                                      "unitType" : 0
                                    }
                                  },
                                  "color-green" : {
                                    "type" : "double",
                                    "defaultValue" : 0.1216,
                                    "interp" : "linr",
                                    "uiHints" : {
                                      "userInterfaceType" : 0,
                                      "unitType" : 0
                                    }
                                  },
                                  "color-red" : {
                                    "type" : "double",
                                    "defaultValue" : 0.1216,
                                    "interp" : "linr",
                                    "uiHints" : {
                                      "userInterfaceType" : 0,
                                      "unitType" : 0
                                    }
                                  },
                                  "enabled" : 1,
                                  "offset" : {
                                    "type" : "double",
                                    "defaultValue" : 10.0,
                                    "interp" : "linr",
                                    "uiHints" : {
                                      "userInterfaceType" : 0,
                                      "unitType" : 0
                                    }
                                  },
                                  "opacity" : {
                                    "type" : "double",
                                    "defaultValue" : 0.4,
                                    "interp" : "linr",
                                    "uiHints" : {
                                      "userInterfaceType" : 0,
                                      "unitType" : 0
                                    }
                                  }
                                },
                                "metadata" : {
                                  "effectIndex" : "1",
                                  "presetName" : "Aplicar sombra"
                                }
                              }
                          ],
                          "start" : 0,
                          "duration" : 4435,
                          "mediaStart" : 0,
                          "mediaDuration" : 4435,
                          "scalar" : 1,
                          "animationTracks" : {

                          }
                        },
                    "audio" : 
                        {
                          "id" : 34,
                          "_type" : "AMFile",
                          "src" : 3,
                          "trackNumber" : 1,
                          "attributes" : {
                            "ident" : "",
                            "gain" : 1.0,
                            "mixToMono" : false,
                            "loudnessNormalization" : true
                          },
                            "channelNumber" : "0,1",
                          "effects" : [

                          ],
                          "start" : 0,
                          "duration" : 4435,
                          "mediaStart" : 0,
                          "mediaDuration" : 4435,
                          "scalar" : 1,
                          "animationTracks" : {

                          }
                        }
,
                    "start" : 0,
                    "duration" : 4435,
                    "mediaStart" : 0,
                    "mediaDuration" : 4435,
                    "scalar" : 1,
                    "metadata" : {
                      "clipSpeedAttribute" : false,
                      "default-height" : 607.5,
                      "default-scale0" : 0.5625,
                      "default-scale1" : 0.5625,
                      "default-translation0" : 0.0,
                      "default-translation1" : 0.0,
                      "default-width" : 1080.0
                    }
                  }
                ]
              },
              {
                "trackIndex" : 3,
                "medias" : [
                  {
                    "id" : 35,
                    "_type" : "AMFile",
                    "src" : 5,
                    "trackNumber" : 0,
                    "attributes" : {
                      "ident" : "üçÄ Chill Instrumental [Non Copyrighted Music]  Embrace  by @Sappheiros  üá∫üá∏",
                      "gain" : 1.0,
                      "mixToMono" : false,
                      "loudnessNormalization" : true
                    },
                      "channelNumber" : "0,1",
                    "parameters" : {
                      "volume" : {
                        "type" : "double",
                        "keyframes" : [
                          {
                            "endTime" : 0,
                            "time" : 0,
                            "value" : 0.631868131868132,
                            "duration" : 0
                          },
                          {
                            "endTime" : 4610,
                            "time" : 4610,
                            "value" : 0.631868131868132,
                            "duration" : 0
                          },
                          {
                            "endTime" : 4790,
                            "time" : 4790,
                            "value" : 0.0,
                            "duration" : 0
                          },
                          {
                            "endTime" : 4791,
                            "time" : 4791,
                            "value" : 1.0,
                            "duration" : 0
                          }
                        ]
                      }
                    },
                    "effects" : [

                    ],
                    "start" : 0,
                    "duration" : 4438,
                    "mediaStart" : 352,
                    "mediaDuration" : 4438,
                    "scalar" : 1,
                    "metadata" : {
                      "clipSpeedAttribute" : false
                    },
                    "animationTracks" : {

                    }
                  }
                ]
              }            ]
          }
        }
      ]
    },
    "trackAttributes" : [
      {
        "ident" : "",
        "audioMuted" : false,
        "videoHidden" : false,
        "magnetic" : false,
        "matte" : 0,
        "solo" : false,
        "metadata" : {
          "IsLocked" : "False",
          "WinTrackHeight" : "56"
        }
      },
      {
        "ident" : "",
        "audioMuted" : false,
        "videoHidden" : false,
        "magnetic" : false,
        "matte" : 0,
        "solo" : false,
        "metadata" : {
          "IsLocked" : "False",
          "WinTrackHeight" : "56"
        }
      },
      {
        "ident" : "",
        "audioMuted" : false,
        "videoHidden" : false,
        "magnetic" : false,
        "matte" : 0,
        "solo" : false,
        "metadata" : {
          "IsLocked" : "False",
          "WinTrackHeight" : "56"
        }
      },
      {
        "ident" : "",
        "audioMuted" : false,
        "videoHidden" : false,
        "magnetic" : false,
        "matte" : 0,
        "solo" : false,
        "metadata" : {
          "IsLocked" : "False",
          "WinTrackHeight" : "56"
        }
      }
    ],
    "captionAttributes" : {
      "enabled" : true,
      "fontName" : "Arial",
      "fontSize" : 39,
      "backgroundColor" : [ 0, 0, 0, 191],
      "foregroundColor" : [ 255, 255, 255, 255],
      "lang" : "en",
      "alignment" : 0,
      "defaultFontSize" : true,
      "opacity" : 0.5,
      "backgroundEnabled" : true,
      "backgroundOnlyAroundText" : true
    },
    "gain" : 1.0,
    "legacyAttenuateAudioMix" : false,
    "backgroundColor" : [ 0, 0, 0, 255]
  },
  "metadata" : {
    "AutoSaveFile" : "",
    "CanvasZoom" : 31,
    "Date" : "domingo-12-17 10:31:40 a.¬†m.",
    "Fit" : 1,
    "IsAutoSave" : false,
    "IsStandalone" : true,
    "Language" : "ESN",
    "ProfileName" : "",
    "ProjectDimensionsChanged" : "1",
    "Title" : "Tip-Copilot-Generar-Imagenes-reel-Instagram",
    "audioNarrationNotes" : "",
    "calloutStyle" : "Basic"
  }
}
