{
  "title" : "",
  "description" : "",
  "author" : "",
  "targetLoudness" : -18.0,
  "shouldApplyLoudnessNormalization" : true,
  "videoFormatFrameRate" : 30,
  "audioFormatSampleRate" : 44100,
  "width" : 640.0,
  "height" : 640.0,
  "version" : "5.0",
  "editRate" : 30,
  "authoringClientName" :  {
    "name" : "Camtasia",
    "platform" : "Windows",
    "version" : "21.0"
  },
  "sourceBin" : [
    {
      "id" : 1,
      "src" : "20240128173112.mp4",
      "rect" : [0, 0, 640, 640],
      "lastMod" : "20240128T223952",
      "loudnessNormalization" : true,
      "sourceTracks" : [
        {
          "range" : [0, 11800],
          "type" : 0,
          "editRate" : 1000,
          "trackRect" : [0, 0, 640, 640],
          "sampleRate" : 10,
          "bitDepth" : 24,
          "numChannels" : 0,
          "integratedLUFS" : 100.0,
          "peakLevel" : -1.0,
          "metaData" : ""
        }
      ],
      "metadata" : {
        "timeAdded" : "20240129T195201.088514"
      }
    },
    {
      "id" : 2,
      "src" : "Linux humanity.mp3",
      "rect" : [0, 0, 0, 0],
      "lastMod" : "20240128T212613",
      "loudnessNormalization" : true,
      "sourceTracks" : [
        {
          "range" : [0, 758640000],
          "type" : 2,
          "editRate" : 10000000,
          "trackRect" : [0, 0, 0, 0],
          "sampleRate" : 48000,
          "bitDepth" : 0,
          "numChannels" : 2,
          "integratedLUFS" : -13.222055120914,
          "peakLevel" : 0.60963761806488,
          "metaData" : ""
        }
      ],
      "metadata" : {
        "timeAdded" : "20240129T195218.945911"
      }
    },
    {
      "id" : 3,
      "src" : "20240128174907.mp4",
      "rect" : [0, 0, 640, 640],
      "lastMod" : "20240128T225806",
      "loudnessNormalization" : true,
      "sourceTracks" : [
        {
          "range" : [0, 11800],
          "type" : 0,
          "editRate" : 1000,
          "trackRect" : [0, 0, 640, 640],
          "sampleRate" : 10,
          "bitDepth" : 24,
          "numChannels" : 0,
          "integratedLUFS" : 100.0,
          "peakLevel" : -1.0,
          "metaData" : ""
        }
      ],
      "metadata" : {
        "timeAdded" : "20240129T195254.891065"
      }
    },
    {
      "id" : 4,
      "src" : "20240128184829.mp4",
      "rect" : [0, 0, 640, 640],
      "lastMod" : "20240128T235628",
      "loudnessNormalization" : true,
      "sourceTracks" : [
        {
          "range" : [0, 11800],
          "type" : 0,
          "editRate" : 1000,
          "trackRect" : [0, 0, 640, 640],
          "sampleRate" : 10,
          "bitDepth" : 24,
          "numChannels" : 0,
          "integratedLUFS" : 100.0,
          "peakLevel" : -1.0,
          "metaData" : ""
        }
      ],
      "metadata" : {
        "timeAdded" : "20240129T195326.636176"
      }
    },
    {
      "id" : 5,
      "src" : "20240128193237.mp4",
      "rect" : [0, 0, 640, 640],
      "lastMod" : "20240129T004201",
      "loudnessNormalization" : true,
      "sourceTracks" : [
        {
          "range" : [0, 11800],
          "type" : 0,
          "editRate" : 1000,
          "trackRect" : [0, 0, 640, 640],
          "sampleRate" : 10,
          "bitDepth" : 24,
          "numChannels" : 0,
          "integratedLUFS" : 100.0,
          "peakLevel" : -1.0,
          "metaData" : ""
        }
      ],
      "metadata" : {
        "timeAdded" : "20240129T195400.691146"
      }
    },
    {
      "id" : 6,
      "src" : "20240128214927.mp4",
      "rect" : [0, 0, 640, 640],
      "lastMod" : "20240129T025913",
      "loudnessNormalization" : true,
      "sourceTracks" : [
        {
          "range" : [0, 11800],
          "type" : 0,
          "editRate" : 1000,
          "trackRect" : [0, 0, 640, 640],
          "sampleRate" : 10,
          "bitDepth" : 24,
          "numChannels" : 0,
          "integratedLUFS" : 100.0,
          "peakLevel" : -1.0,
          "metaData" : ""
        }
      ],
      "metadata" : {
        "timeAdded" : "20240129T195424.219883"
      }
    },
    {
      "id" : 7,
      "src" : "20240128221025.mp4",
      "rect" : [0, 0, 640, 640],
      "lastMod" : "20240129T032000",
      "loudnessNormalization" : true,
      "sourceTracks" : [
        {
          "range" : [0, 11800],
          "type" : 0,
          "editRate" : 1000,
          "trackRect" : [0, 0, 640, 640],
          "sampleRate" : 10,
          "bitDepth" : 24,
          "numChannels" : 0,
          "integratedLUFS" : 100.0,
          "peakLevel" : -1.0,
          "metaData" : ""
        }
      ],
      "metadata" : {
        "timeAdded" : "20240129T195448.564834"
      }
    },
    {
      "id" : 8,
      "src" : "20240128222048.mp4",
      "rect" : [0, 0, 640, 640],
      "lastMod" : "20240129T032959",
      "loudnessNormalization" : true,
      "sourceTracks" : [
        {
          "range" : [0, 11800],
          "type" : 0,
          "editRate" : 1000,
          "trackRect" : [0, 0, 640, 640],
          "sampleRate" : 10,
          "bitDepth" : 24,
          "numChannels" : 0,
          "integratedLUFS" : 100.0,
          "peakLevel" : -1.0,
          "metaData" : ""
        }
      ],
      "metadata" : {
        "timeAdded" : "20240129T195504.712899"
      }
    },
    {
      "id" : 9,
      "src" : "20240128223120.mp4",
      "rect" : [0, 0, 640, 640],
      "lastMod" : "20240129T034158",
      "loudnessNormalization" : true,
      "sourceTracks" : [
        {
          "range" : [0, 11800],
          "type" : 0,
          "editRate" : 1000,
          "trackRect" : [0, 0, 640, 640],
          "sampleRate" : 10,
          "bitDepth" : 24,
          "numChannels" : 0,
          "integratedLUFS" : 100.0,
          "peakLevel" : -1.0,
          "metaData" : ""
        }
      ],
      "metadata" : {
        "timeAdded" : "20240129T195520.005013"
      }
    },
    {
      "id" : 10,
      "src" : "Ubuntu.mp3",
      "rect" : [0, 0, 0, 0],
      "lastMod" : "20240203T180428",
      "loudnessNormalization" : true,
      "sourceTracks" : [
        {
          "range" : [0, 1789440000],
          "type" : 2,
          "editRate" : 10000000,
          "trackRect" : [0, 0, 0, 0],
          "sampleRate" : 48000,
          "bitDepth" : 0,
          "numChannels" : 2,
          "integratedLUFS" : -12.2225487206144,
          "peakLevel" : 0.969267189502716,
          "metaData" : ""
        }
      ],
      "metadata" : {
        "timeAdded" : "20240203T181822.641476"
      }
    },
    {
      "id" : 11,
      "src" : "Ubuntu first boot animation - Dell XPS 13 Ubuntu Edition Startup.mp4",
      "rect" : [0, 0, 1920, 1080],
      "lastMod" : "20240203T180751",
      "loudnessNormalization" : true,
      "sourceTracks" : [
        {
          "range" : [0, 33125],
          "type" : 0,
          "editRate" : 1000,
          "trackRect" : [0, 0, 1920, 1080],
          "sampleRate" : "120001/5000",
          "bitDepth" : 24,
          "numChannels" : 0,
          "integratedLUFS" : 100.0,
          "peakLevel" : -1.0,
          "metaData" : ""
        },
        {
          "range" : [0, 33275],
          "type" : 2,
          "editRate" : 1000,
          "trackRect" : [0, 0, 0, 0],
          "sampleRate" : 44100,
          "bitDepth" : 16,
          "numChannels" : 2,
          "integratedLUFS" : -9.54076750534079,
          "peakLevel" : 1.07236707210541,
          "metaData" : ""
        }
      ],
      "metadata" : {
        "timeAdded" : "20240203T181957.776901"
      }
    },
    {
      "id" : 12,
      "src" : "20231231144205.mp4",
      "rect" : [0, 0, 640, 640],
      "lastMod" : "20231231T195606",
      "loudnessNormalization" : true,
      "sourceTracks" : [
        {
          "range" : [0, 14800],
          "type" : 0,
          "editRate" : 1000,
          "trackRect" : [0, 0, 640, 640],
          "sampleRate" : 10,
          "bitDepth" : 24,
          "numChannels" : 0,
          "integratedLUFS" : 100.0,
          "peakLevel" : -1.0,
          "metaData" : ""
        }
      ],
      "metadata" : {
        "timeAdded" : "20240203T182130.747302"
      }
    },
    {
      "id" : 13,
      "src" : "20231231172715.mp4",
      "rect" : [0, 0, 640, 640],
      "lastMod" : "20231231T223122",
      "loudnessNormalization" : true,
      "sourceTracks" : [
        {
          "range" : [0, 4600],
          "type" : 0,
          "editRate" : 1000,
          "trackRect" : [0, 0, 640, 640],
          "sampleRate" : 10,
          "bitDepth" : 24,
          "numChannels" : 0,
          "integratedLUFS" : 100.0,
          "peakLevel" : -1.0,
          "metaData" : ""
        }
      ],
      "metadata" : {
        "timeAdded" : "20240203T182255.262920"
      }
    },
    {
      "id" : 14,
      "src" : "20231231173920.mp4",
      "rect" : [0, 0, 640, 640],
      "lastMod" : "20231231T224347",
      "loudnessNormalization" : true,
      "sourceTracks" : [
        {
          "range" : [0, 5000],
          "type" : 0,
          "editRate" : 1000,
          "trackRect" : [0, 0, 640, 640],
          "sampleRate" : 10,
          "bitDepth" : 24,
          "numChannels" : 0,
          "integratedLUFS" : 100.0,
          "peakLevel" : -1.0,
          "metaData" : ""
        }
      ],
      "metadata" : {
        "timeAdded" : "20240203T182323.075725"
      }
    },
    {
      "id" : 15,
      "src" : "20240112231200.mp4",
      "rect" : [0, 0, 640, 640],
      "lastMod" : "20240113T042846",
      "loudnessNormalization" : true,
      "sourceTracks" : [
        {
          "range" : [0, 13112],
          "type" : 0,
          "editRate" : 1000,
          "trackRect" : [0, 0, 640, 640],
          "sampleRate" : "45001/5000",
          "bitDepth" : 24,
          "numChannels" : 0,
          "integratedLUFS" : 100.0,
          "peakLevel" : -1.0,
          "metaData" : ""
        }
      ],
      "metadata" : {
        "timeAdded" : "20240203T182411.937100"
      }
    },
    {
      "id" : 16,
      "src" : "20240113130611.mp4",
      "rect" : [0, 0, 640, 640],
      "lastMod" : "20240113T181536",
      "loudnessNormalization" : true,
      "sourceTracks" : [
        {
          "range" : [0, 14750],
          "type" : 0,
          "editRate" : 1000,
          "trackRect" : [0, 0, 640, 640],
          "sampleRate" : 8,
          "bitDepth" : 24,
          "numChannels" : 0,
          "integratedLUFS" : 100.0,
          "peakLevel" : -1.0,
          "metaData" : ""
        }
      ],
      "metadata" : {
        "timeAdded" : "20240203T182439.823362"
      }
    },
    {
      "id" : 17,
      "src" : "20240113142137.mp4",
      "rect" : [0, 0, 640, 640],
      "lastMod" : "20240113T193145",
      "loudnessNormalization" : true,
      "sourceTracks" : [
        {
          "range" : [0, 14750],
          "type" : 0,
          "editRate" : 1000,
          "trackRect" : [0, 0, 640, 640],
          "sampleRate" : 8,
          "bitDepth" : 24,
          "numChannels" : 0,
          "integratedLUFS" : 100.0,
          "peakLevel" : -1.0,
          "metaData" : ""
        }
      ],
      "metadata" : {
        "timeAdded" : "20240203T182504.181903"
      }
    },
    {
      "id" : 18,
      "src" : "20240113160509.mp4",
      "rect" : [0, 0, 640, 640],
      "lastMod" : "20240113T211602",
      "loudnessNormalization" : true,
      "sourceTracks" : [
        {
          "range" : [0, 14750],
          "type" : 0,
          "editRate" : 1000,
          "trackRect" : [0, 0, 640, 640],
          "sampleRate" : 8,
          "bitDepth" : 24,
          "numChannels" : 0,
          "integratedLUFS" : 100.0,
          "peakLevel" : -1.0,
          "metaData" : ""
        }
      ],
      "metadata" : {
        "timeAdded" : "20240203T182531.839986"
      }
    },
    {
      "id" : 19,
      "src" : "20240113162619.mp4",
      "rect" : [0, 0, 640, 640],
      "lastMod" : "20240113T213636",
      "loudnessNormalization" : true,
      "sourceTracks" : [
        {
          "range" : [0, 14750],
          "type" : 0,
          "editRate" : 1000,
          "trackRect" : [0, 0, 640, 640],
          "sampleRate" : 8,
          "bitDepth" : 24,
          "numChannels" : 0,
          "integratedLUFS" : 100.0,
          "peakLevel" : -1.0,
          "metaData" : ""
        }
      ],
      "metadata" : {
        "timeAdded" : "20240203T182632.779119"
      }
    },
    {
      "id" : 20,
      "src" : "20240113164514.mp4",
      "rect" : [0, 0, 640, 640],
      "lastMod" : "20240113T215534",
      "loudnessNormalization" : true,
      "sourceTracks" : [
        {
          "range" : [0, 14750],
          "type" : 0,
          "editRate" : 1000,
          "trackRect" : [0, 0, 640, 640],
          "sampleRate" : 8,
          "bitDepth" : 24,
          "numChannels" : 0,
          "integratedLUFS" : 100.0,
          "peakLevel" : -1.0,
          "metaData" : ""
        }
      ],
      "metadata" : {
        "timeAdded" : "20240203T182706.772661"
      }
    },
    {
      "id" : 21,
      "src" : "20240128174907(1).mp4",
      "rect" : [0, 0, 640, 640],
      "lastMod" : "20240128T225806",
      "loudnessNormalization" : true,
      "sourceTracks" : [
        {
          "range" : [0, 11800],
          "type" : 0,
          "editRate" : 1000,
          "trackRect" : [0, 0, 640, 640],
          "sampleRate" : 10,
          "bitDepth" : 24,
          "numChannels" : 0,
          "integratedLUFS" : 100.0,
          "peakLevel" : -1.0,
          "metaData" : ""
        }
      ],
      "metadata" : {
        "timeAdded" : "20240203T182740.915197"
      }
    },
    {
      "id" : 22,
      "src" : "20240128184829(1).mp4",
      "rect" : [0, 0, 640, 640],
      "lastMod" : "20240128T235628",
      "loudnessNormalization" : true,
      "sourceTracks" : [
        {
          "range" : [0, 11800],
          "type" : 0,
          "editRate" : 1000,
          "trackRect" : [0, 0, 640, 640],
          "sampleRate" : 10,
          "bitDepth" : 24,
          "numChannels" : 0,
          "integratedLUFS" : 100.0,
          "peakLevel" : -1.0,
          "metaData" : ""
        }
      ],
      "metadata" : {
        "timeAdded" : "20240203T182822.621114"
      }
    },
    {
      "id" : 23,
      "src" : "20240128221025(1).mp4",
      "rect" : [0, 0, 640, 640],
      "lastMod" : "20240129T032000",
      "loudnessNormalization" : true,
      "sourceTracks" : [
        {
          "range" : [0, 11800],
          "type" : 0,
          "editRate" : 1000,
          "trackRect" : [0, 0, 640, 640],
          "sampleRate" : 10,
          "bitDepth" : 24,
          "numChannels" : 0,
          "integratedLUFS" : 100.0,
          "peakLevel" : -1.0,
          "metaData" : ""
        }
      ],
      "metadata" : {
        "timeAdded" : "20240203T182909.049713"
      }
    }
  ],
  "timeline" : {
    "id" : 24,
    "sceneTrack" : {
      "scenes" : [
        {
          "csml" : {
            "tracks" : [
              {
                "trackIndex" : 0,
                "medias" : [
                  {
                    "id" : 25,
                    "_type" : "AMFile",
                    "src" : 10,
                    "trackNumber" : 0,
                    "attributes" : {
                      "ident" : "Ubuntu",
                      "gain" : 1.0,
                      "mixToMono" : false,
                      "loudnessNormalization" : true
                    },
                      "channelNumber" : "0,1",
                    "effects" : [

                    ],
                    "start" : 0,
                    "duration" : 5367,
                    "mediaStart" : 0,
                    "mediaDuration" : 5367,
                    "scalar" : 1,
                    "metadata" : {
                      "clipSpeedAttribute" : false
                    },
                    "animationTracks" : {

                    }
                  }
                ]
              },
              {
                "trackIndex" : 1,
                "medias" : [
                  {
                    "id" : 26,
                    "_type" : "UnifiedMedia",
                    "video" : 
                        {
                          "id" : 27,
                          "_type" : "VMFile",
                          "src" : 11,
                          "trackNumber" : 0,
                          "attributes" : {
                            "ident" : "Ubuntu first boot animation - Dell XPS 13 Ubuntu Edition Startup"
                          },
                          "parameters" : {
                            "translation0" : {
                              "type" : "double",
                              "defaultValue" : 2.8421709430404e-14,
                              "interp" : "eioe"
                            },
                            "translation1" : {
                              "type" : "double",
                              "defaultValue" : 1.4210854715202e-14,
                              "interp" : "eioe"
                            },
                            "scale0" : {
                              "type" : "double",
                              "defaultValue" : 0.592592592592593,
                              "interp" : "eioe"
                            },
                            "scale1" : {
                              "type" : "double",
                              "defaultValue" : 0.592592592592593,
                              "interp" : "eioe"
                            },
                            "sourceCrop0" : {
                              "type" : "double",
                              "defaultValue" : 0.0,
                              "interp" : "eioe"
                            },
                            "sourceCrop1" : {
                              "type" : "double",
                              "defaultValue" : 0.0,
                              "interp" : "eioe"
                            },
                            "sourceCrop2" : {
                              "type" : "double",
                              "defaultValue" : 0.0,
                              "interp" : "eioe"
                            },
                            "sourceCrop3" : {
                              "type" : "double",
                              "defaultValue" : 0.0,
                              "interp" : "eioe"
                            },
                            "geometryCrop0" : {
                              "type" : "double",
                              "defaultValue" : 0.0,
                              "interp" : "eioe"
                            },
                            "geometryCrop1" : {
                              "type" : "double",
                              "defaultValue" : 0.0,
                              "interp" : "eioe"
                            },
                            "geometryCrop2" : {
                              "type" : "double",
                              "defaultValue" : 0.0,
                              "interp" : "eioe"
                            },
                            "geometryCrop3" : {
                              "type" : "double",
                              "defaultValue" : 0.0,
                              "interp" : "eioe"
                            }
                          },
                          "effects" : [

                          ],
                          "start" : 0,
                          "duration" : 82,
                          "mediaStart" : 0,
                          "mediaDuration" : 82,
                          "scalar" : 1,
                          "animationTracks" : {

                          }
                        },
                    "audio" : 
                        {
                          "id" : 28,
                          "_type" : "AMFile",
                          "src" : 11,
                          "trackNumber" : 1,
                          "attributes" : {
                            "ident" : "",
                            "gain" : 1.0,
                            "mixToMono" : false,
                            "loudnessNormalization" : true
                          },
                            "channelNumber" : "0,1",
                          "parameters" : {
                            "volume" : {
                              "type" : "double",
                              "keyframes" : [
                                {
                                  "endTime" : -1,
                                  "time" : -1,
                                  "value" : 1.0,
                                  "duration" : 0
                                },
                                {
                                  "endTime" : 0,
                                  "time" : 0,
                                  "value" : 0.0,
                                  "duration" : 0
                                },
                                {
                                  "endTime" : 82,
                                  "time" : 82,
                                  "value" : 0.0,
                                  "duration" : 0
                                },
                                {
                                  "endTime" : 83,
                                  "time" : 83,
                                  "value" : 1.0,
                                  "duration" : 0
                                }
                              ]
                            }
                          },
                          "effects" : [

                          ],
                          "start" : 0,
                          "duration" : 82,
                          "mediaStart" : 0,
                          "mediaDuration" : 82,
                          "scalar" : 1,
                          "animationTracks" : {

                          }
                        }
,
                    "start" : 0,
                    "duration" : 82,
                    "mediaStart" : 0,
                    "mediaDuration" : 993,
                    "scalar" : 1,
                    "metadata" : {
                      "clipSpeedAttribute" : false,
                      "default-height" : 360.0,
                      "default-scale0" : 0.333333333333333,
                      "default-scale1" : 0.333333333333333,
                      "default-translation0" : 0.0,
                      "default-translation1" : 0.0,
                      "default-width" : 640.0
                    }
                  },
                  {
                    "id" : 29,
                    "_type" : "VMFile",
                    "src" : 12,
                    "trackNumber" : 0,
                    "attributes" : {
                      "ident" : "20231231144205"
                    },
                    "parameters" : {
                      "sourceCrop0" : {
                        "type" : "double",
                        "defaultValue" : 0.0,
                        "interp" : "eioe"
                      },
                      "sourceCrop1" : {
                        "type" : "double",
                        "defaultValue" : 0.0,
                        "interp" : "eioe"
                      },
                      "sourceCrop2" : {
                        "type" : "double",
                        "defaultValue" : 0.0,
                        "interp" : "eioe"
                      },
                      "sourceCrop3" : {
                        "type" : "double",
                        "defaultValue" : 0.0,
                        "interp" : "eioe"
                      },
                      "geometryCrop0" : {
                        "type" : "double",
                        "defaultValue" : 0.0,
                        "interp" : "eioe"
                      },
                      "geometryCrop1" : {
                        "type" : "double",
                        "defaultValue" : 0.0,
                        "interp" : "eioe"
                      },
                      "geometryCrop2" : {
                        "type" : "double",
                        "defaultValue" : 0.0,
                        "interp" : "eioe"
                      },
                      "geometryCrop3" : {
                        "type" : "double",
                        "defaultValue" : 0.0,
                        "interp" : "eioe"
                      }
                    },
                    "effects" : [

                    ],
                    "start" : 82,
                    "duration" : 444,
                    "mediaStart" : 0,
                    "mediaDuration" : 444,
                    "scalar" : 1,
                    "metadata" : {
                      "clipSpeedAttribute" : false
                    },
                    "animationTracks" : {

                    }
                  },
                  {
                    "id" : 30,
                    "_type" : "VMFile",
                    "src" : 1,
                    "trackNumber" : 0,
                    "attributes" : {
                      "ident" : "20240128173112"
                    },
                    "parameters" : {
                      "sourceCrop0" : 0.0,
                      "sourceCrop1" : 0.0,
                      "sourceCrop2" : 0.0,
                      "sourceCrop3" : 0.0,
                      "geometryCrop0" : 0.0,
                      "geometryCrop1" : 0.0,
                      "geometryCrop2" : 0.0,
                      "geometryCrop3" : 0.0
                    },
                    "effects" : [

                    ],
                    "start" : 526,
                    "duration" : 354,
                    "mediaStart" : 0,
                    "mediaDuration" : 354,
                    "scalar" : 1,
                    "metadata" : {
                      "clipSpeedAttribute" : false
                    },
                    "animationTracks" : {

                    }
                  },
                  {
                    "id" : 31,
                    "_type" : "VMFile",
                    "src" : 3,
                    "trackNumber" : 0,
                    "attributes" : {
                      "ident" : "20240128174907"
                    },
                    "parameters" : {
                      "sourceCrop0" : 0.0,
                      "sourceCrop1" : 0.0,
                      "sourceCrop2" : 0.0,
                      "sourceCrop3" : 0.0,
                      "geometryCrop0" : 0.0,
                      "geometryCrop1" : 0.0,
                      "geometryCrop2" : 0.0,
                      "geometryCrop3" : 0.0
                    },
                    "effects" : [

                    ],
                    "start" : 880,
                    "duration" : 354,
                    "mediaStart" : 0,
                    "mediaDuration" : 354,
                    "scalar" : 1,
                    "metadata" : {
                      "clipSpeedAttribute" : false
                    },
                    "animationTracks" : {

                    }
                  },
                  {
                    "id" : 32,
                    "_type" : "VMFile",
                    "src" : 5,
                    "trackNumber" : 0,
                    "attributes" : {
                      "ident" : "20240128193237"
                    },
                    "parameters" : {
                      "sourceCrop0" : 0.0,
                      "sourceCrop1" : 0.0,
                      "sourceCrop2" : 0.0,
                      "sourceCrop3" : 0.0,
                      "geometryCrop0" : 0.0,
                      "geometryCrop1" : 0.0,
                      "geometryCrop2" : 0.0,
                      "geometryCrop3" : 0.0
                    },
                    "effects" : [

                    ],
                    "start" : 1234,
                    "duration" : 354,
                    "mediaStart" : 0,
                    "mediaDuration" : 354,
                    "scalar" : 1,
                    "metadata" : {
                      "clipSpeedAttribute" : false
                    },
                    "animationTracks" : {

                    }
                  },
                  {
                    "id" : 33,
                    "_type" : "VMFile",
                    "src" : 4,
                    "trackNumber" : 0,
                    "attributes" : {
                      "ident" : "20240128184829"
                    },
                    "parameters" : {
                      "sourceCrop0" : 0.0,
                      "sourceCrop1" : 0.0,
                      "sourceCrop2" : 0.0,
                      "sourceCrop3" : 0.0,
                      "geometryCrop0" : 0.0,
                      "geometryCrop1" : 0.0,
                      "geometryCrop2" : 0.0,
                      "geometryCrop3" : 0.0
                    },
                    "effects" : [

                    ],
                    "start" : 1588,
                    "duration" : 354,
                    "mediaStart" : 0,
                    "mediaDuration" : 354,
                    "scalar" : 1,
                    "metadata" : {
                      "clipSpeedAttribute" : false
                    },
                    "animationTracks" : {

                    }
                  },
                  {
                    "id" : 34,
                    "_type" : "VMFile",
                    "src" : 6,
                    "trackNumber" : 0,
                    "attributes" : {
                      "ident" : "20240128214927"
                    },
                    "parameters" : {
                      "sourceCrop0" : 0.0,
                      "sourceCrop1" : 0.0,
                      "sourceCrop2" : 0.0,
                      "sourceCrop3" : 0.0,
                      "geometryCrop0" : 0.0,
                      "geometryCrop1" : 0.0,
                      "geometryCrop2" : 0.0,
                      "geometryCrop3" : 0.0
                    },
                    "effects" : [

                    ],
                    "start" : 1942,
                    "duration" : 354,
                    "mediaStart" : 0,
                    "mediaDuration" : 354,
                    "scalar" : 1,
                    "metadata" : {
                      "clipSpeedAttribute" : false
                    },
                    "animationTracks" : {

                    }
                  },
                  {
                    "id" : 35,
                    "_type" : "VMFile",
                    "src" : 8,
                    "trackNumber" : 0,
                    "attributes" : {
                      "ident" : "20240128222048"
                    },
                    "parameters" : {
                      "sourceCrop0" : 0.0,
                      "sourceCrop1" : 0.0,
                      "sourceCrop2" : 0.0,
                      "sourceCrop3" : 0.0,
                      "geometryCrop0" : 0.0,
                      "geometryCrop1" : 0.0,
                      "geometryCrop2" : 0.0,
                      "geometryCrop3" : 0.0
                    },
                    "effects" : [

                    ],
                    "start" : 2296,
                    "duration" : 354,
                    "mediaStart" : 0,
                    "mediaDuration" : 354,
                    "scalar" : 1,
                    "metadata" : {
                      "clipSpeedAttribute" : false
                    },
                    "animationTracks" : {

                    }
                  },
                  {
                    "id" : 36,
                    "_type" : "VMFile",
                    "src" : 9,
                    "trackNumber" : 0,
                    "attributes" : {
                      "ident" : "20240128223120"
                    },
                    "parameters" : {
                      "sourceCrop0" : 0.0,
                      "sourceCrop1" : 0.0,
                      "sourceCrop2" : 0.0,
                      "sourceCrop3" : 0.0,
                      "geometryCrop0" : 0.0,
                      "geometryCrop1" : 0.0,
                      "geometryCrop2" : 0.0,
                      "geometryCrop3" : 0.0
                    },
                    "effects" : [

                    ],
                    "start" : 2650,
                    "duration" : 152,
                    "mediaStart" : 0,
                    "mediaDuration" : 152,
                    "scalar" : 1,
                    "metadata" : {
                      "clipSpeedAttribute" : false
                    },
                    "animationTracks" : {

                    }
                  },
                  {
                    "id" : 37,
                    "_type" : "VMFile",
                    "src" : 13,
                    "trackNumber" : 0,
                    "attributes" : {
                      "ident" : "20231231172715"
                    },
                    "parameters" : {
                      "sourceCrop0" : {
                        "type" : "double",
                        "defaultValue" : 0.0,
                        "interp" : "eioe"
                      },
                      "sourceCrop1" : {
                        "type" : "double",
                        "defaultValue" : 0.0,
                        "interp" : "eioe"
                      },
                      "sourceCrop2" : {
                        "type" : "double",
                        "defaultValue" : 0.0,
                        "interp" : "eioe"
                      },
                      "sourceCrop3" : {
                        "type" : "double",
                        "defaultValue" : 0.0,
                        "interp" : "eioe"
                      },
                      "geometryCrop0" : {
                        "type" : "double",
                        "defaultValue" : 0.0,
                        "interp" : "eioe"
                      },
                      "geometryCrop1" : {
                        "type" : "double",
                        "defaultValue" : 0.0,
                        "interp" : "eioe"
                      },
                      "geometryCrop2" : {
                        "type" : "double",
                        "defaultValue" : 0.0,
                        "interp" : "eioe"
                      },
                      "geometryCrop3" : {
                        "type" : "double",
                        "defaultValue" : 0.0,
                        "interp" : "eioe"
                      }
                    },
                    "effects" : [

                    ],
                    "start" : 2802,
                    "duration" : 138,
                    "mediaStart" : 0,
                    "mediaDuration" : 138,
                    "scalar" : 1,
                    "metadata" : {
                      "clipSpeedAttribute" : false
                    },
                    "animationTracks" : {

                    }
                  },
                  {
                    "id" : 38,
                    "_type" : "VMFile",
                    "src" : 14,
                    "trackNumber" : 0,
                    "attributes" : {
                      "ident" : "20231231173920"
                    },
                    "parameters" : {
                      "sourceCrop0" : {
                        "type" : "double",
                        "defaultValue" : 0.0,
                        "interp" : "eioe"
                      },
                      "sourceCrop1" : {
                        "type" : "double",
                        "defaultValue" : 0.0,
                        "interp" : "eioe"
                      },
                      "sourceCrop2" : {
                        "type" : "double",
                        "defaultValue" : 0.0,
                        "interp" : "eioe"
                      },
                      "sourceCrop3" : {
                        "type" : "double",
                        "defaultValue" : 0.0,
                        "interp" : "eioe"
                      },
                      "geometryCrop0" : {
                        "type" : "double",
                        "defaultValue" : 0.0,
                        "interp" : "eioe"
                      },
                      "geometryCrop1" : {
                        "type" : "double",
                        "defaultValue" : 0.0,
                        "interp" : "eioe"
                      },
                      "geometryCrop2" : {
                        "type" : "double",
                        "defaultValue" : 0.0,
                        "interp" : "eioe"
                      },
                      "geometryCrop3" : {
                        "type" : "double",
                        "defaultValue" : 0.0,
                        "interp" : "eioe"
                      }
                    },
                    "effects" : [

                    ],
                    "start" : 2940,
                    "duration" : 150,
                    "mediaStart" : 0,
                    "mediaDuration" : 150,
                    "scalar" : 1,
                    "metadata" : {
                      "clipSpeedAttribute" : false
                    },
                    "animationTracks" : {

                    }
                  },
                  {
                    "id" : 39,
                    "_type" : "VMFile",
                    "src" : 15,
                    "trackNumber" : 0,
                    "attributes" : {
                      "ident" : "20240112231200"
                    },
                    "parameters" : {
                      "sourceCrop0" : {
                        "type" : "double",
                        "defaultValue" : 0.0,
                        "interp" : "eioe"
                      },
                      "sourceCrop1" : {
                        "type" : "double",
                        "defaultValue" : 0.0,
                        "interp" : "eioe"
                      },
                      "sourceCrop2" : {
                        "type" : "double",
                        "defaultValue" : 0.0,
                        "interp" : "eioe"
                      },
                      "sourceCrop3" : {
                        "type" : "double",
                        "defaultValue" : 0.0,
                        "interp" : "eioe"
                      },
                      "geometryCrop0" : {
                        "type" : "double",
                        "defaultValue" : 0.0,
                        "interp" : "eioe"
                      },
                      "geometryCrop1" : {
                        "type" : "double",
                        "defaultValue" : 0.0,
                        "interp" : "eioe"
                      },
                      "geometryCrop2" : {
                        "type" : "double",
                        "defaultValue" : 0.0,
                        "interp" : "eioe"
                      },
                      "geometryCrop3" : {
                        "type" : "double",
                        "defaultValue" : 0.0,
                        "interp" : "eioe"
                      }
                    },
                    "effects" : [

                    ],
                    "start" : 3090,
                    "duration" : 393,
                    "mediaStart" : 0,
                    "mediaDuration" : 393,
                    "scalar" : 1,
                    "metadata" : {
                      "clipSpeedAttribute" : false
                    },
                    "animationTracks" : {

                    }
                  },
                  {
                    "id" : 40,
                    "_type" : "VMFile",
                    "src" : 18,
                    "trackNumber" : 0,
                    "attributes" : {
                      "ident" : "20240113160509"
                    },
                    "parameters" : {
                      "sourceCrop0" : {
                        "type" : "double",
                        "defaultValue" : 0.0,
                        "interp" : "eioe"
                      },
                      "sourceCrop1" : {
                        "type" : "double",
                        "defaultValue" : 0.0,
                        "interp" : "eioe"
                      },
                      "sourceCrop2" : {
                        "type" : "double",
                        "defaultValue" : 0.0,
                        "interp" : "eioe"
                      },
                      "sourceCrop3" : {
                        "type" : "double",
                        "defaultValue" : 0.0,
                        "interp" : "eioe"
                      },
                      "geometryCrop0" : {
                        "type" : "double",
                        "defaultValue" : 0.0,
                        "interp" : "eioe"
                      },
                      "geometryCrop1" : {
                        "type" : "double",
                        "defaultValue" : 0.0,
                        "interp" : "eioe"
                      },
                      "geometryCrop2" : {
                        "type" : "double",
                        "defaultValue" : 0.0,
                        "interp" : "eioe"
                      },
                      "geometryCrop3" : {
                        "type" : "double",
                        "defaultValue" : 0.0,
                        "interp" : "eioe"
                      }
                    },
                    "effects" : [

                    ],
                    "start" : 3483,
                    "duration" : 443,
                    "mediaStart" : 0,
                    "mediaDuration" : 443,
                    "scalar" : 1,
                    "metadata" : {
                      "clipSpeedAttribute" : false
                    },
                    "animationTracks" : {

                    }
                  },
                  {
                    "id" : 41,
                    "_type" : "VMFile",
                    "src" : 16,
                    "trackNumber" : 0,
                    "attributes" : {
                      "ident" : "20240113130611"
                    },
                    "parameters" : {
                      "sourceCrop0" : {
                        "type" : "double",
                        "defaultValue" : 0.0,
                        "interp" : "eioe"
                      },
                      "sourceCrop1" : {
                        "type" : "double",
                        "defaultValue" : 0.0,
                        "interp" : "eioe"
                      },
                      "sourceCrop2" : {
                        "type" : "double",
                        "defaultValue" : 0.0,
                        "interp" : "eioe"
                      },
                      "sourceCrop3" : {
                        "type" : "double",
                        "defaultValue" : 0.0,
                        "interp" : "eioe"
                      },
                      "geometryCrop0" : {
                        "type" : "double",
                        "defaultValue" : 0.0,
                        "interp" : "eioe"
                      },
                      "geometryCrop1" : {
                        "type" : "double",
                        "defaultValue" : 0.0,
                        "interp" : "eioe"
                      },
                      "geometryCrop2" : {
                        "type" : "double",
                        "defaultValue" : 0.0,
                        "interp" : "eioe"
                      },
                      "geometryCrop3" : {
                        "type" : "double",
                        "defaultValue" : 0.0,
                        "interp" : "eioe"
                      }
                    },
                    "effects" : [

                    ],
                    "start" : 3926,
                    "duration" : 311,
                    "mediaStart" : 0,
                    "mediaDuration" : 311,
                    "scalar" : 1,
                    "metadata" : {
                      "clipSpeedAttribute" : false
                    },
                    "animationTracks" : {

                    }
                  },
                  {
                    "id" : 42,
                    "_type" : "VMFile",
                    "src" : 19,
                    "trackNumber" : 0,
                    "attributes" : {
                      "ident" : "20240113162619"
                    },
                    "parameters" : {
                      "sourceCrop0" : {
                        "type" : "double",
                        "defaultValue" : 0.0,
                        "interp" : "eioe"
                      },
                      "sourceCrop1" : {
                        "type" : "double",
                        "defaultValue" : 0.0,
                        "interp" : "eioe"
                      },
                      "sourceCrop2" : {
                        "type" : "double",
                        "defaultValue" : 0.0,
                        "interp" : "eioe"
                      },
                      "sourceCrop3" : {
                        "type" : "double",
                        "defaultValue" : 0.0,
                        "interp" : "eioe"
                      },
                      "geometryCrop0" : {
                        "type" : "double",
                        "defaultValue" : 0.0,
                        "interp" : "eioe"
                      },
                      "geometryCrop1" : {
                        "type" : "double",
                        "defaultValue" : 0.0,
                        "interp" : "eioe"
                      },
                      "geometryCrop2" : {
                        "type" : "double",
                        "defaultValue" : 0.0,
                        "interp" : "eioe"
                      },
                      "geometryCrop3" : {
                        "type" : "double",
                        "defaultValue" : 0.0,
                        "interp" : "eioe"
                      }
                    },
                    "effects" : [

                    ],
                    "start" : 4237,
                    "duration" : 206,
                    "mediaStart" : 0,
                    "mediaDuration" : 206,
                    "scalar" : 1,
                    "metadata" : {
                      "clipSpeedAttribute" : false
                    },
                    "animationTracks" : {

                    }
                  },
                  {
                    "id" : 43,
                    "_type" : "VMFile",
                    "src" : 20,
                    "trackNumber" : 0,
                    "attributes" : {
                      "ident" : "20240113164514"
                    },
                    "parameters" : {
                      "sourceCrop0" : {
                        "type" : "double",
                        "defaultValue" : 0.0,
                        "interp" : "eioe"
                      },
                      "sourceCrop1" : {
                        "type" : "double",
                        "defaultValue" : 0.0,
                        "interp" : "eioe"
                      },
                      "sourceCrop2" : {
                        "type" : "double",
                        "defaultValue" : 0.0,
                        "interp" : "eioe"
                      },
                      "sourceCrop3" : {
                        "type" : "double",
                        "defaultValue" : 0.0,
                        "interp" : "eioe"
                      },
                      "geometryCrop0" : {
                        "type" : "double",
                        "defaultValue" : 0.0,
                        "interp" : "eioe"
                      },
                      "geometryCrop1" : {
                        "type" : "double",
                        "defaultValue" : 0.0,
                        "interp" : "eioe"
                      },
                      "geometryCrop2" : {
                        "type" : "double",
                        "defaultValue" : 0.0,
                        "interp" : "eioe"
                      },
                      "geometryCrop3" : {
                        "type" : "double",
                        "defaultValue" : 0.0,
                        "interp" : "eioe"
                      }
                    },
                    "effects" : [

                    ],
                    "start" : 4443,
                    "duration" : 184,
                    "mediaStart" : 0,
                    "mediaDuration" : 184,
                    "scalar" : 1,
                    "metadata" : {
                      "clipSpeedAttribute" : false
                    },
                    "animationTracks" : {

                    }
                  },
                  {
                    "id" : 44,
                    "_type" : "VMFile",
                    "src" : 22,
                    "trackNumber" : 0,
                    "attributes" : {
                      "ident" : "20240128184829"
                    },
                    "parameters" : {
                      "sourceCrop0" : {
                        "type" : "double",
                        "defaultValue" : 0.0,
                        "interp" : "eioe"
                      },
                      "sourceCrop1" : {
                        "type" : "double",
                        "defaultValue" : 0.0,
                        "interp" : "eioe"
                      },
                      "sourceCrop2" : {
                        "type" : "double",
                        "defaultValue" : 0.0,
                        "interp" : "eioe"
                      },
                      "sourceCrop3" : {
                        "type" : "double",
                        "defaultValue" : 0.0,
                        "interp" : "eioe"
                      },
                      "geometryCrop0" : {
                        "type" : "double",
                        "defaultValue" : 0.0,
                        "interp" : "eioe"
                      },
                      "geometryCrop1" : {
                        "type" : "double",
                        "defaultValue" : 0.0,
                        "interp" : "eioe"
                      },
                      "geometryCrop2" : {
                        "type" : "double",
                        "defaultValue" : 0.0,
                        "interp" : "eioe"
                      },
                      "geometryCrop3" : {
                        "type" : "double",
                        "defaultValue" : 0.0,
                        "interp" : "eioe"
                      }
                    },
                    "effects" : [

                    ],
                    "start" : 4627,
                    "duration" : 143,
                    "mediaStart" : 0,
                    "mediaDuration" : 143,
                    "scalar" : 1,
                    "metadata" : {
                      "clipSpeedAttribute" : false
                    },
                    "animationTracks" : {

                    }
                  },
                  {
                    "id" : 45,
                    "_type" : "VMFile",
                    "src" : 23,
                    "trackNumber" : 0,
                    "attributes" : {
                      "ident" : "20240128221025"
                    },
                    "parameters" : {
                      "sourceCrop0" : {
                        "type" : "double",
                        "defaultValue" : 0.0,
                        "interp" : "eioe"
                      },
                      "sourceCrop1" : {
                        "type" : "double",
                        "defaultValue" : 0.0,
                        "interp" : "eioe"
                      },
                      "sourceCrop2" : {
                        "type" : "double",
                        "defaultValue" : 0.0,
                        "interp" : "eioe"
                      },
                      "sourceCrop3" : {
                        "type" : "double",
                        "defaultValue" : 0.0,
                        "interp" : "eioe"
                      },
                      "geometryCrop0" : {
                        "type" : "double",
                        "defaultValue" : 0.0,
                        "interp" : "eioe"
                      },
                      "geometryCrop1" : {
                        "type" : "double",
                        "defaultValue" : 0.0,
                        "interp" : "eioe"
                      },
                      "geometryCrop2" : {
                        "type" : "double",
                        "defaultValue" : 0.0,
                        "interp" : "eioe"
                      },
                      "geometryCrop3" : {
                        "type" : "double",
                        "defaultValue" : 0.0,
                        "interp" : "eioe"
                      }
                    },
                    "effects" : [

                    ],
                    "start" : 4770,
                    "duration" : 354,
                    "mediaStart" : 0,
                    "mediaDuration" : 354,
                    "scalar" : 1,
                    "metadata" : {
                      "clipSpeedAttribute" : false
                    },
                    "animationTracks" : {

                    }
                  },
                  {
                    "id" : 46,
                    "_type" : "UnifiedMedia",
                    "video" : 
                        {
                          "id" : 47,
                          "_type" : "VMFile",
                          "src" : 11,
                          "trackNumber" : 0,
                          "attributes" : {
                            "ident" : "Ubuntu first boot animation - Dell XPS 13 Ubuntu Edition Startup"
                          },
                          "parameters" : {
                            "translation0" : {
                              "type" : "double",
                              "defaultValue" : -2.8421709430404e-14,
                              "interp" : "eioe"
                            },
                            "translation1" : {
                              "type" : "double",
                              "defaultValue" : 1.4210854715202e-14,
                              "interp" : "eioe"
                            },
                            "scale0" : {
                              "type" : "double",
                              "defaultValue" : 0.592592592592593,
                              "interp" : "eioe"
                            },
                            "scale1" : {
                              "type" : "double",
                              "defaultValue" : 0.592592592592593,
                              "interp" : "eioe"
                            },
                            "sourceCrop0" : {
                              "type" : "double",
                              "defaultValue" : 0.0,
                              "interp" : "eioe"
                            },
                            "sourceCrop1" : {
                              "type" : "double",
                              "defaultValue" : 0.0,
                              "interp" : "eioe"
                            },
                            "sourceCrop2" : {
                              "type" : "double",
                              "defaultValue" : 0.0,
                              "interp" : "eioe"
                            },
                            "sourceCrop3" : {
                              "type" : "double",
                              "defaultValue" : 0.0,
                              "interp" : "eioe"
                            },
                            "geometryCrop0" : {
                              "type" : "double",
                              "defaultValue" : 0.0,
                              "interp" : "eioe"
                            },
                            "geometryCrop1" : {
                              "type" : "double",
                              "defaultValue" : 0.0,
                              "interp" : "eioe"
                            },
                            "geometryCrop2" : {
                              "type" : "double",
                              "defaultValue" : 0.0,
                              "interp" : "eioe"
                            },
                            "geometryCrop3" : {
                              "type" : "double",
                              "defaultValue" : 0.0,
                              "interp" : "eioe"
                            }
                          },
                          "effects" : [

                          ],
                          "start" : 5124,
                          "duration" : 252,
                          "mediaStart" : 741,
                          "mediaDuration" : 252,
                          "scalar" : 1,
                          "animationTracks" : {

                          }
                        },
                    "audio" : 
                        {
                          "id" : 48,
                          "_type" : "AMFile",
                          "src" : 11,
                          "trackNumber" : 1,
                          "attributes" : {
                            "ident" : "",
                            "gain" : 1.0,
                            "mixToMono" : false,
                            "loudnessNormalization" : true
                          },
                            "channelNumber" : "0,1",
                          "parameters" : {
                            "volume" : {
                              "type" : "double",
                              "keyframes" : [
                                {
                                  "endTime" : 0,
                                  "time" : 0,
                                  "value" : 1.0,
                                  "duration" : 0
                                },
                                {
                                  "endTime" : 740,
                                  "time" : 740,
                                  "value" : 1.0,
                                  "duration" : 0
                                },
                                {
                                  "endTime" : 741,
                                  "time" : 741,
                                  "value" : 0.0,
                                  "duration" : 0
                                },
                                {
                                  "endTime" : 993,
                                  "time" : 993,
                                  "value" : 0.0,
                                  "duration" : 0
                                },
                                {
                                  "endTime" : 994,
                                  "time" : 994,
                                  "value" : 1.0,
                                  "duration" : 0
                                }
                              ]
                            }
                          },
                          "effects" : [

                          ],
                          "start" : 5124,
                          "duration" : 252,
                          "mediaStart" : 741,
                          "mediaDuration" : 252,
                          "scalar" : 1,
                          "animationTracks" : {

                          }
                        }
,
                    "start" : 5124,
                    "duration" : 252,
                    "mediaStart" : 0,
                    "mediaDuration" : 993,
                    "scalar" : 1,
                    "metadata" : {
                      "clipSpeedAttribute" : false,
                      "default-height" : 360.0,
                      "default-scale0" : 0.333333333333333,
                      "default-scale1" : 0.333333333333333,
                      "default-translation0" : 0.0,
                      "default-translation1" : 0.0,
                      "default-width" : 640.0
                    }
                  }
                ],
                "transitions" : [
                  {
                    "name" : "BlurZoom",
                    "duration" : 15,
                    "trivial" : false,
                    "reverse" : false,
                    "bypass" : false,
                    "useAudioPreRoll" : true,
                    "useVisualPreRoll" : true,
                    "leftMedia" : 26,
                    "rightMedia" : 29
                  },
                  {
                    "name" : "GradientWipe",
                    "duration" : 15,
                    "trivial" : false,
                    "reverse" : false,
                    "bypass" : false,
                    "useAudioPreRoll" : true,
                    "useVisualPreRoll" : true,
                    "leftMedia" : 29,
                    "rightMedia" : 30
                  },
                  {
                    "name" : "RadialBlur",
                    "duration" : 15,
                    "trivial" : false,
                    "reverse" : false,
                    "bypass" : false,
                    "useAudioPreRoll" : true,
                    "useVisualPreRoll" : true,
                    "leftMedia" : 30,
                    "rightMedia" : 31
                  },
                  {
                    "name" : "RadialBlur",
                    "duration" : 15,
                    "trivial" : false,
                    "reverse" : false,
                    "bypass" : false,
                    "useAudioPreRoll" : true,
                    "useVisualPreRoll" : true,
                    "leftMedia" : 31,
                    "rightMedia" : 32
                  },
                  {
                    "name" : "RadialBlur",
                    "duration" : 15,
                    "trivial" : false,
                    "reverse" : false,
                    "bypass" : false,
                    "useAudioPreRoll" : true,
                    "useVisualPreRoll" : true,
                    "leftMedia" : 32,
                    "rightMedia" : 33
                  },
                  {
                    "name" : "RadialBlur",
                    "duration" : 15,
                    "trivial" : false,
                    "reverse" : false,
                    "bypass" : false,
                    "useAudioPreRoll" : true,
                    "useVisualPreRoll" : true,
                    "leftMedia" : 33,
                    "rightMedia" : 34
                  },
                  {
                    "name" : "RadialBlur",
                    "duration" : 15,
                    "trivial" : false,
                    "reverse" : false,
                    "bypass" : false,
                    "useAudioPreRoll" : true,
                    "useVisualPreRoll" : true,
                    "leftMedia" : 34,
                    "rightMedia" : 35
                  },
                  {
                    "name" : "RadialBlur",
                    "duration" : 15,
                    "trivial" : false,
                    "reverse" : false,
                    "bypass" : false,
                    "useAudioPreRoll" : true,
                    "useVisualPreRoll" : true,
                    "leftMedia" : 35,
                    "rightMedia" : 36
                  },
                  {
                    "name" : "RadialBlur",
                    "duration" : 15,
                    "trivial" : false,
                    "reverse" : false,
                    "bypass" : false,
                    "useAudioPreRoll" : true,
                    "useVisualPreRoll" : true,
                    "leftMedia" : 36,
                    "rightMedia" : 37
                  },
                  {
                    "name" : "RadialBlur",
                    "duration" : 15,
                    "trivial" : false,
                    "reverse" : false,
                    "bypass" : false,
                    "useAudioPreRoll" : true,
                    "useVisualPreRoll" : true,
                    "leftMedia" : 37,
                    "rightMedia" : 38
                  },
                  {
                    "name" : "RadialBlur",
                    "duration" : 15,
                    "trivial" : false,
                    "reverse" : false,
                    "bypass" : false,
                    "useAudioPreRoll" : true,
                    "useVisualPreRoll" : true,
                    "leftMedia" : 38,
                    "rightMedia" : 39
                  },
                  {
                    "name" : "RadialBlur",
                    "duration" : 15,
                    "trivial" : false,
                    "reverse" : false,
                    "bypass" : false,
                    "useAudioPreRoll" : true,
                    "useVisualPreRoll" : true,
                    "leftMedia" : 39,
                    "rightMedia" : 40
                  },
                  {
                    "name" : "RadialBlur",
                    "duration" : 15,
                    "trivial" : false,
                    "reverse" : false,
                    "bypass" : false,
                    "useAudioPreRoll" : true,
                    "useVisualPreRoll" : true,
                    "leftMedia" : 40,
                    "rightMedia" : 41
                  },
                  {
                    "name" : "RadialBlur",
                    "duration" : 15,
                    "trivial" : false,
                    "reverse" : false,
                    "bypass" : false,
                    "useAudioPreRoll" : true,
                    "useVisualPreRoll" : true,
                    "leftMedia" : 41,
                    "rightMedia" : 42
                  },
                  {
                    "name" : "RadialBlur",
                    "duration" : 15,
                    "trivial" : false,
                    "reverse" : false,
                    "bypass" : false,
                    "useAudioPreRoll" : true,
                    "useVisualPreRoll" : true,
                    "leftMedia" : 42,
                    "rightMedia" : 43
                  },
                  {
                    "name" : "RadialBlur",
                    "duration" : 15,
                    "trivial" : false,
                    "reverse" : false,
                    "bypass" : false,
                    "useAudioPreRoll" : true,
                    "useVisualPreRoll" : true,
                    "leftMedia" : 43,
                    "rightMedia" : 44
                  },
                  {
                    "name" : "RadialBlur",
                    "duration" : 15,
                    "trivial" : false,
                    "reverse" : false,
                    "bypass" : false,
                    "useAudioPreRoll" : true,
                    "useVisualPreRoll" : true,
                    "leftMedia" : 44,
                    "rightMedia" : 45
                  },
                  {
                    "name" : "CrossZoom",
                    "duration" : 15,
                    "trivial" : false,
                    "reverse" : false,
                    "bypass" : false,
                    "useAudioPreRoll" : true,
                    "useVisualPreRoll" : true,
                    "leftMedia" : 45,
                    "rightMedia" : 46
                  }
                ]
              },
              {
                "trackIndex" : 2,
                "medias" : [
                ]
              }            ]
          }
        }
      ]
    },
    "trackAttributes" : [
      {
        "ident" : "",
        "audioMuted" : false,
        "videoHidden" : false,
        "magnetic" : false,
        "matte" : 0,
        "solo" : false,
        "metadata" : {
          "IsLocked" : "False",
          "WinTrackHeight" : "56"
        }
      },
      {
        "ident" : "",
        "audioMuted" : false,
        "videoHidden" : false,
        "magnetic" : false,
        "matte" : 0,
        "solo" : false,
        "metadata" : {
          "IsLocked" : "False",
          "WinTrackHeight" : "56"
        }
      },
      {
        "ident" : "",
        "audioMuted" : false,
        "videoHidden" : false,
        "magnetic" : false,
        "matte" : 0,
        "solo" : false,
        "metadata" : {
          "IsLocked" : "False",
          "WinTrackHeight" : "56"
        }
      }
    ],
    "captionAttributes" : {
      "enabled" : true,
      "fontName" : "Arial",
      "fontSize" : 23,
      "backgroundColor" : [ 0, 0, 0, 191],
      "foregroundColor" : [ 255, 255, 255, 255],
      "lang" : "en",
      "alignment" : 0,
      "defaultFontSize" : true,
      "opacity" : 0.5,
      "backgroundEnabled" : true,
      "backgroundOnlyAroundText" : true
    },
    "gain" : 1.0,
    "legacyAttenuateAudioMix" : false,
    "backgroundColor" : [ 0, 0, 0, 255]
  },
  "metadata" : {
    "AutoSaveFile" : "",
    "CanvasZoom" : 93,
    "Date" : "sábado-02-03 01:16:45 p. m.",
    "IsAutoSave" : false,
    "IsStandalone" : true,
    "Language" : "ESN",
    "ProfileName" : "",
    "ProjectDimensionsChanged" : "1",
    "Title" : "Ubuntu & Debian Ethnic Chill",
    "audioNarrationNotes" : "",
    "calloutStyle" : "Basic"
  }
}
