{
  "title" : "",
  "description" : "",
  "author" : "",
  "targetLoudness" : -18.0,
  "shouldApplyLoudnessNormalization" : true,
  "videoFormatFrameRate" : 30,
  "audioFormatSampleRate" : 44100,
  "width" : 1026.0,
  "height" : 768.0,
  "version" : "5.0",
  "editRate" : 30,
  "authoringClientName" :  {
    "name" : "Camtasia",
    "platform" : "Windows",
    "version" : "21.0"
  },
  "sourceBin" : [
    {
      "id" : 1,
      "src" : "Rec 16-12-2023.trec",
      "rect" : [0, 0, 1026, 768],
      "lastMod" : "20231216T184107",
      "loudnessNormalization" : true,
      "sourceTracks" : [
        {
          "range" : [0, 12232],
          "type" : 0,
          "editRate" : 30,
          "trackRect" : [0, 0, 1026, 768],
          "sampleRate" : 29,
          "bitDepth" : 0,
          "numChannels" : 0,
          "integratedLUFS" : 100.0,
          "peakLevel" : -1.0,
          "metaData" : "2b7b6a00-7a1f-11e2-83d0-0017f200be7f;2b7b6aef-7a1f-11e2-83d0-0017f200be7f;2b7b6af0-7a1f-11e2-83d0-0017f200be7f;2b7b6af1-7a1f-11e2-83d0-0017f200be7f;2b7b6af2-7a1f-11e2-83d0-0017f200be7f;2b7b6af3-7a1f-11e2-83d0-0017f200be7f;2b7b6af5-7a1f-11e2-83d0-0017f200be7f;2b7b6af6-7a1f-11e2-83d0-0017f200be7f;2b7b6af7-7a1f-11e2-83d0-0017f200be7f;2b7b6af8-7a1f-11e2-83d0-0017f200be7f;2b7b6af9-7a1f-11e2-83d0-0017f200be7f;2b7b6afa-7a1f-11e2-83d0-0017f200be7f;"
        },
        {
          "range" : [0, 17979392],
          "type" : 2,
          "editRate" : 44100,
          "trackRect" : [0, 0, 0, 0],
          "sampleRate" : 44100,
          "bitDepth" : 16,
          "numChannels" : 2,
          "integratedLUFS" : -33.8651105367435,
          "peakLevel" : 0.304901123046875,
          "metaData" : ""
        },
        {
          "range" : [0, 17950720],
          "type" : 2,
          "editRate" : 44100,
          "trackRect" : [0, 0, 0, 0],
          "sampleRate" : 44100,
          "bitDepth" : 16,
          "numChannels" : 2,
          "integratedLUFS" : -1.79769313486232e+308,
          "peakLevel" : 0.0,
          "metaData" : ""
        }
      ],
      "metadata" : {
        "timeAdded" : "20231216T184128.228680"
      }
    }
  ],
  "timeline" : {
    "id" : 2,
    "sceneTrack" : {
      "scenes" : [
        {
          "csml" : {
            "tracks" : [
              {
                "trackIndex" : 0,
                "medias" : [
                  {
                    "id" : 3,
                    "_type" : "UnifiedMedia",
                    "video" : 
                        {
                          "id" : 4,
                          "_type" : "ScreenVMFile",
                          "src" : 1,
                          "trackNumber" : 0,
                          "attributes" : {
                            "ident" : "Rec 16-12-2023"
                          },
                          "parameters" : {
                            "sourceCrop0" : {
                              "type" : "double",
                              "defaultValue" : 0.0,
                              "interp" : "eioe"
                            },
                            "sourceCrop1" : {
                              "type" : "double",
                              "defaultValue" : 0.0,
                              "interp" : "eioe"
                            },
                            "sourceCrop2" : {
                              "type" : "double",
                              "defaultValue" : 0.0,
                              "interp" : "eioe"
                            },
                            "sourceCrop3" : {
                              "type" : "double",
                              "defaultValue" : 0.0,
                              "interp" : "eioe"
                            },
                            "geometryCrop0" : {
                              "type" : "double",
                              "defaultValue" : 0.0,
                              "interp" : "eioe"
                            },
                            "geometryCrop1" : {
                              "type" : "double",
                              "defaultValue" : 0.0,
                              "interp" : "eioe"
                            },
                            "geometryCrop2" : {
                              "type" : "double",
                              "defaultValue" : 0.0,
                              "interp" : "eioe"
                            },
                            "geometryCrop3" : {
                              "type" : "double",
                              "defaultValue" : 0.0,
                              "interp" : "eioe"
                            },
                            "cursorScale" : {
                              "type" : "double",
                              "defaultValue" : 1.0,
                              "interp" : "linr"
                            },
                            "cursorOpacity" : {
                              "type" : "double",
                              "defaultValue" : 1.0,
                              "interp" : "linr"
                            },
                            "cursorLocation" : {
                            }
                          },
                          "effects" : [

                          ],
                          "start" : 0,
                          "duration" : 909,
                          "mediaStart" : 0,
                          "mediaDuration" : 909,
                          "scalar" : 1,
                          "animationTracks" : {

                          }
                        },
                    "audio" : 
                        {
                          "id" : 5,
                          "_type" : "AMFile",
                          "src" : 1,
                          "trackNumber" : 2,
                          "attributes" : {
                            "ident" : "",
                            "gain" : 1.0,
                            "mixToMono" : false,
                            "loudnessNormalization" : true
                          },
                            "channelNumber" : "0,1",
                          "effects" : [

                          ],
                          "start" : 0,
                          "duration" : 909,
                          "mediaStart" : 0,
                          "mediaDuration" : 909,
                          "scalar" : 1,
                          "animationTracks" : {

                          }
                        }
,
                    "start" : 0,
                    "duration" : 909,
                    "mediaStart" : 0,
                    "mediaDuration" : 12211,
                    "scalar" : 1,
                    "metadata" : {
                      "AutoAppliedSmartFocus" : "False",
                      "clipSpeedAttribute" : false
                    }
                  },
                  {
                    "id" : 6,
                    "_type" : "UnifiedMedia",
                    "video" : 
                        {
                          "id" : 7,
                          "_type" : "ScreenVMFile",
                          "src" : 1,
                          "trackNumber" : 0,
                          "attributes" : {
                            "ident" : "Rec 16-12-2023"
                          },
                          "parameters" : {
                            "sourceCrop0" : {
                              "type" : "double",
                              "defaultValue" : 0.0,
                              "interp" : "eioe"
                            },
                            "sourceCrop1" : {
                              "type" : "double",
                              "defaultValue" : 0.0,
                              "interp" : "eioe"
                            },
                            "sourceCrop2" : {
                              "type" : "double",
                              "defaultValue" : 0.0,
                              "interp" : "eioe"
                            },
                            "sourceCrop3" : {
                              "type" : "double",
                              "defaultValue" : 0.0,
                              "interp" : "eioe"
                            },
                            "geometryCrop0" : {
                              "type" : "double",
                              "defaultValue" : 0.0,
                              "interp" : "eioe"
                            },
                            "geometryCrop1" : {
                              "type" : "double",
                              "defaultValue" : 0.0,
                              "interp" : "eioe"
                            },
                            "geometryCrop2" : {
                              "type" : "double",
                              "defaultValue" : 0.0,
                              "interp" : "eioe"
                            },
                            "geometryCrop3" : {
                              "type" : "double",
                              "defaultValue" : 0.0,
                              "interp" : "eioe"
                            },
                            "cursorScale" : {
                              "type" : "double",
                              "defaultValue" : 1.0,
                              "interp" : "linr"
                            },
                            "cursorOpacity" : {
                              "type" : "double",
                              "defaultValue" : 1.0,
                              "interp" : "linr"
                            },
                            "cursorLocation" : {
                            }
                          },
                          "effects" : [

                          ],
                          "start" : 909,
                          "duration" : 901,
                          "mediaStart" : 909,
                          "mediaDuration" : 2703,
                          "scalar" : "1/3",
                          "animationTracks" : {

                          }
                        },
                    "audio" : 
                        {
                          "id" : 8,
                          "_type" : "AMFile",
                          "src" : 1,
                          "trackNumber" : 2,
                          "attributes" : {
                            "ident" : "",
                            "gain" : 1.0,
                            "mixToMono" : false,
                            "loudnessNormalization" : true
                          },
                            "channelNumber" : "0,1",
                          "effects" : [

                          ],
                          "start" : 909,
                          "duration" : 901,
                          "mediaStart" : 909,
                          "mediaDuration" : 2703,
                          "scalar" : "1/3",
                          "animationTracks" : {

                          }
                        }
,
                    "start" : 909,
                    "duration" : 901,
                    "mediaStart" : 0,
                    "mediaDuration" : 12211,
                    "scalar" : "1/3",
                    "metadata" : {
                      "AutoAppliedSmartFocus" : "False",
                      "clipSpeedAttribute" : true
                    }
                  },
                  {
                    "id" : 9,
                    "_type" : "UnifiedMedia",
                    "video" : 
                        {
                          "id" : 10,
                          "_type" : "ScreenVMFile",
                          "src" : 1,
                          "trackNumber" : 0,
                          "attributes" : {
                            "ident" : "Rec 16-12-2023"
                          },
                          "parameters" : {
                            "sourceCrop0" : {
                              "type" : "double",
                              "defaultValue" : 0.0,
                              "interp" : "eioe"
                            },
                            "sourceCrop1" : {
                              "type" : "double",
                              "defaultValue" : 0.0,
                              "interp" : "eioe"
                            },
                            "sourceCrop2" : {
                              "type" : "double",
                              "defaultValue" : 0.0,
                              "interp" : "eioe"
                            },
                            "sourceCrop3" : {
                              "type" : "double",
                              "defaultValue" : 0.0,
                              "interp" : "eioe"
                            },
                            "geometryCrop0" : {
                              "type" : "double",
                              "defaultValue" : 0.0,
                              "interp" : "eioe"
                            },
                            "geometryCrop1" : {
                              "type" : "double",
                              "defaultValue" : 0.0,
                              "interp" : "eioe"
                            },
                            "geometryCrop2" : {
                              "type" : "double",
                              "defaultValue" : 0.0,
                              "interp" : "eioe"
                            },
                            "geometryCrop3" : {
                              "type" : "double",
                              "defaultValue" : 0.0,
                              "interp" : "eioe"
                            },
                            "cursorScale" : {
                              "type" : "double",
                              "defaultValue" : 1.0,
                              "interp" : "linr"
                            },
                            "cursorOpacity" : {
                              "type" : "double",
                              "defaultValue" : 1.0,
                              "interp" : "linr"
                            },
                            "cursorLocation" : {
                            }
                          },
                          "effects" : [

                          ],
                          "start" : 1810,
                          "duration" : 389,
                          "mediaStart" : 3612,
                          "mediaDuration" : 389,
                          "scalar" : 1,
                          "animationTracks" : {

                          }
                        },
                    "audio" : 
                        {
                          "id" : 11,
                          "_type" : "AMFile",
                          "src" : 1,
                          "trackNumber" : 2,
                          "attributes" : {
                            "ident" : "",
                            "gain" : 1.0,
                            "mixToMono" : false,
                            "loudnessNormalization" : true
                          },
                            "channelNumber" : "0,1",
                          "effects" : [

                          ],
                          "start" : 1810,
                          "duration" : 389,
                          "mediaStart" : 3612,
                          "mediaDuration" : 389,
                          "scalar" : 1,
                          "animationTracks" : {

                          }
                        }
,
                    "start" : 1810,
                    "duration" : 389,
                    "mediaStart" : 0,
                    "mediaDuration" : 12211,
                    "scalar" : 1,
                    "metadata" : {
                      "AutoAppliedSmartFocus" : "False",
                      "clipSpeedAttribute" : false
                    }
                  },
                  {
                    "id" : 12,
                    "_type" : "UnifiedMedia",
                    "video" : 
                        {
                          "id" : 13,
                          "_type" : "ScreenVMFile",
                          "src" : 1,
                          "trackNumber" : 0,
                          "attributes" : {
                            "ident" : "Rec 16-12-2023"
                          },
                          "parameters" : {
                            "sourceCrop0" : {
                              "type" : "double",
                              "defaultValue" : 0.0,
                              "interp" : "eioe"
                            },
                            "sourceCrop1" : {
                              "type" : "double",
                              "defaultValue" : 0.0,
                              "interp" : "eioe"
                            },
                            "sourceCrop2" : {
                              "type" : "double",
                              "defaultValue" : 0.0,
                              "interp" : "eioe"
                            },
                            "sourceCrop3" : {
                              "type" : "double",
                              "defaultValue" : 0.0,
                              "interp" : "eioe"
                            },
                            "geometryCrop0" : {
                              "type" : "double",
                              "defaultValue" : 0.0,
                              "interp" : "eioe"
                            },
                            "geometryCrop1" : {
                              "type" : "double",
                              "defaultValue" : 0.0,
                              "interp" : "eioe"
                            },
                            "geometryCrop2" : {
                              "type" : "double",
                              "defaultValue" : 0.0,
                              "interp" : "eioe"
                            },
                            "geometryCrop3" : {
                              "type" : "double",
                              "defaultValue" : 0.0,
                              "interp" : "eioe"
                            },
                            "cursorScale" : {
                              "type" : "double",
                              "defaultValue" : 1.0,
                              "interp" : "linr"
                            },
                            "cursorOpacity" : {
                              "type" : "double",
                              "defaultValue" : 1.0,
                              "interp" : "linr"
                            },
                            "cursorLocation" : {
                            }
                          },
                          "effects" : [

                          ],
                          "start" : 2199,
                          "duration" : 412,
                          "mediaStart" : 11314,
                          "mediaDuration" : 412,
                          "scalar" : 1,
                          "animationTracks" : {

                          }
                        },
                    "audio" : 
                        {
                          "id" : 14,
                          "_type" : "AMFile",
                          "src" : 1,
                          "trackNumber" : 2,
                          "attributes" : {
                            "ident" : "",
                            "gain" : 1.0,
                            "mixToMono" : false,
                            "loudnessNormalization" : true
                          },
                            "channelNumber" : "0,1",
                          "effects" : [

                          ],
                          "start" : 2199,
                          "duration" : 412,
                          "mediaStart" : 11314,
                          "mediaDuration" : 412,
                          "scalar" : 1,
                          "animationTracks" : {

                          }
                        }
,
                    "start" : 2199,
                    "duration" : 412,
                    "mediaStart" : 0,
                    "mediaDuration" : 12211,
                    "scalar" : 1,
                    "metadata" : {
                      "AutoAppliedSmartFocus" : "False",
                      "clipSpeedAttribute" : false
                    }
                  }
                ]
              },
              {
                "trackIndex" : 1,
                "medias" : [
                ]
              }            ]
          }
        }
      ]
    },
    "trackAttributes" : [
      {
        "ident" : "",
        "audioMuted" : false,
        "videoHidden" : false,
        "magnetic" : false,
        "matte" : 0,
        "solo" : false,
        "metadata" : {
          "IsLocked" : "False",
          "WinTrackHeight" : "56"
        }
      },
      {
        "ident" : "",
        "audioMuted" : false,
        "videoHidden" : false,
        "magnetic" : false,
        "matte" : 0,
        "solo" : false,
        "metadata" : {
          "IsLocked" : "False",
          "WinTrackHeight" : "56"
        }
      }
    ],
    "captionAttributes" : {
      "enabled" : true,
      "fontName" : "Arial",
      "fontSize" : 37,
      "backgroundColor" : [ 0, 0, 0, 191],
      "foregroundColor" : [ 255, 255, 255, 255],
      "lang" : "en",
      "alignment" : 0,
      "defaultFontSize" : true,
      "opacity" : 0.5,
      "backgroundEnabled" : true,
      "backgroundOnlyAroundText" : true
    },
    "gain" : 1.0,
    "legacyAttenuateAudioMix" : false,
    "backgroundColor" : [ 0, 0, 0, 255]
  },
  "metadata" : {
    "AutoSaveFile" : "C:\\Users\\samcalderonaguirre\\AppData\\Local\\TechSmith\\Camtasia Studio\\21.0\\Auto-Saves\\Proyecto sin título81f75c.autosave.tscproj",
    "CanvasZoom" : 77,
    "Date" : "sábado-12-16 01:41:27 p. m.",
    "IsAutoSave" : false,
    "IsStandalone" : true,
    "Language" : "ESN",
    "ProfileName" : "",
    "ProjectDimensionsChanged" : "1",
    "Title" : "Tip-Copilot-Generar-Imagenes",
    "audioNarrationNotes" : "",
    "calloutStyle" : "Basic"
  }
}
